<?xml version="1.0" standalone="no"?>
<!DOCTYPE svg PUBLIC "-//W3C//DTD SVG 1.1//EN" "http://www.w3.org/Graphics/SVG/1.1/DTD/svg11.dtd" >
<svg xmlns="http://www.w3.org/2000/svg">
<metadata>
This is a custom SVG webfont generated by Font Squirrel.
Copyright   : Copyright 1992 Southern Software Inc All Rights Reserved
</metadata>
<defs>
<font id="VAGRoundedLightSSiBold" horiz-adv-x="1062" >
<font-face units-per-em="2048" ascent="1638" descent="-410" />
<missing-glyph horiz-adv-x="489" />
<glyph unicode=" "  horiz-adv-x="489" />
<glyph unicode="&#x09;" horiz-adv-x="489" />
<glyph unicode="&#xa0;" horiz-adv-x="489" />
<glyph unicode="!" horiz-adv-x="446" d="M119 92q0 43 30.5 75t73.5 32t74 -32t31 -75t-31 -73.5t-74 -30.5t-73.5 30.5t-30.5 73.5zM133 492v897q0 96 90 96t90 -96v-897q0 -96 -90 -97q-90 1 -90 97z" />
<glyph unicode="&#x22;" horiz-adv-x="722" d="M131 1114v283q0 88 84 88t84 -88v-283q0 -88 -84 -88t-84 88zM422 1114v283q0 88 84 88t84 -88v-283q0 -88 -84 -88t-84 88z" />
<glyph unicode="#" horiz-adv-x="1067" d="M14 514q0 74 127 74q20 0 56 -2t45 -2l43 305q-8 0 -39 -2t-49 -2q-121 0 -121 73q0 72 129 72q23 0 56.5 -2t41.5 -2l16 256q27 203 115 203q70 0 70 -70q0 -76 -21 -194q-14 -98 -30 -195h243l17 256q27 203 114 203q70 0 70 -70q0 -76 -20 -194q-14 -98 -31 -195 q6 0 36.5 2t49.5 2q123 0 123 -72q0 -74 -127 -73q-23 0 -57.5 2t-43.5 2l-43 -305q8 0 38 2t48 2q123 0 123 -74q0 -72 -129 -72q-23 0 -57.5 2t-40.5 2q-8 -129 -18 -256q-27 -203 -113 -202q-70 0 -70 69q0 76 19 195l32 194h-243q-8 -129 -19 -256q-27 -203 -112 -202 q-70 0 -70 69q0 76 18 195l33 194q-8 0 -37.5 -2t-48.5 -2q-123 0 -123 72zM391 584h244l43 305h-244z" />
<glyph unicode="$" horiz-adv-x="903" d="M2 172q0 86 72 86q23 0 128 -56.5t204 -56.5v572q-195 68 -271 127q-119 96 -119 262q0 150 121 260q115 104 269 119q-6 141 43 141t43 -141q98 -8 188 -45q125 -49 125 -127q0 -33 -22.5 -56.5t-55.5 -23.5q-29 0 -106 43q-84 45 -129 51v-453q205 -72 284 -139 q125 -104 125 -282q0 -180 -114.5 -307.5t-294.5 -149.5q6 -150 -43 -150t-43 142q-109 0 -238 43q-166 53 -166 141zM209 1118q0 -133 197 -211v420q-86 -10 -141.5 -66.5t-55.5 -142.5zM492 156q104 23 160.5 101.5t56.5 186.5q0 160 -217 242v-530z" />
<glyph unicode="%" horiz-adv-x="1427" d="M41 1135q0 147 83 248.5t228 101.5t232 -105q80 -98 80 -245t-80 -244q-88 -104 -232 -105q-143 0 -231 105q-80 97 -80 244zM176 1135q0 -96 39 -160q47 -78 137 -78t137 78q39 63 39 160q0 96 -39 161q-47 78 -137 78t-137 -78q-39 -65 -39 -161zM354 27q0 55 264 684 l310 729q25 61 71 61q72 0 72 -55q0 -51 -264 -682l-309 -731q-25 -61 -76 -62q-68 1 -68 56zM764 338q0 147 80 244q86 104 231 104t232 -104q80 -96 79 -244q0 -147 -79 -246q-86 -104 -232 -104q-145 0 -231 104q-80 99 -80 246zM899 338q0 -96 39 -162q47 -78 137 -78 t137 78q39 66 39 162t-39 160q-47 78 -137 77q-90 0 -137 -77q-39 -64 -39 -160z" />
<glyph unicode="&#x26;" horiz-adv-x="1286" d="M35 416q0 172 88 289q70 92 237 192q-162 170 -161 289q0 154 104 231q92 68 252 68q123 0 215 -68q104 -74 104 -192q0 -211 -262 -363l326 -389l100 156q78 119 115 119q76 0 76 -64q0 -100 -191 -330l123 -141q92 -111 92 -152q0 -31 -21.5 -52t-51.5 -21 q-47 0 -133 98l-113 139q-186 -238 -451 -237q-190 0 -319 120t-129 308zM215 436q0 -129 77 -203.5t208 -74.5q178 0 334 188l-373 434q-121 -70 -176 -137q-70 -88 -70 -207zM379 1190q0 -63 135 -213q193 111 193 217q0 68 -49.5 106.5t-116.5 38.5q-72 0 -117 -39.5 t-45 -109.5z" />
<glyph unicode="'" horiz-adv-x="444" d="M137 1114v283q0 88 84 88t84 -88v-283q0 -88 -84 -88t-84 88z" />
<glyph unicode="(" horiz-adv-x="370" d="M45 657q0 209 43 480q61 385 166 385q72 0 72 -60q0 -18 -29 -108q-84 -262 -84 -697q0 -430 84 -694q29 -90 29 -110q0 -59 -72 -60q-104 0 -166 385q-43 270 -43 479z" />
<glyph unicode=")" horiz-adv-x="512" d="M117 -147q0 20 28 110q84 264 84 694q0 434 -84 697q-29 90 -28 108q0 59 71 60q104 0 166 -385q43 -270 43 -480q0 -209 -43 -479q-61 -385 -166 -385q-71 1 -71 60z" />
<glyph unicode="*" horiz-adv-x="700" d="M29 977q0 53 92 92l137 49l-135 49q-94 43 -94 95q0 29 21.5 49t49.5 20q33 0 103 -55l96 -78q0 37 -11.5 107.5t-11.5 107.5q0 72 74 72t74 -72q0 -37 -11.5 -107.5t-11.5 -107.5l97 78q72 55 102 55q29 0 50.5 -20.5t21.5 -48.5q0 -51 -92 -95l-138 -49l138 -49 q92 -39 92 -92q0 -29 -21.5 -50.5t-50.5 -21.5q-31 0 -100 56l-99 79q0 -37 11.5 -107.5t11.5 -107.5q0 -72 -74 -71q-74 0 -74 71q0 37 11.5 108t11.5 107l-96 -79q-72 -55 -103 -56q-29 0 -50 21.5t-21 50.5z" />
<glyph unicode="+" horiz-adv-x="1148" d="M55 524q0 98 199 99q51 0 135 -7.5t100 -7.5q0 18 -7 103.5t-7 136.5q0 199 98 199q100 0 101 -199q0 -51 -8.5 -136t-8.5 -104q18 0 102.5 7.5t135.5 7.5q197 0 197 -99q0 -86 -88 -86h-347q0 -18 8.5 -103t8.5 -136q0 -199 -101 -199q-98 0 -98 199q0 51 7 136t7 103 h-346q-88 0 -88 86z" />
<glyph unicode="," horiz-adv-x="458" d="M72 -182q0 45 57 159q41 72 79 147t97 75q33 0 57.5 -22.5t24.5 -55.5q0 -47 -57 -160l-80 -146q-39 -75 -96 -75q-33 0 -57.5 22.5t-24.5 55.5z" />
<glyph unicode="-" horiz-adv-x="655" d="M39 555q0 33 22.5 55.5t55.5 22.5h422q31 0 54 -22.5t23 -55.5t-22.5 -56.5t-54.5 -23.5h-422q-33 0 -55.5 23.5t-22.5 56.5z" />
<glyph unicode="." horiz-adv-x="362" d="M76 92q0 43 30.5 75t73.5 32q45 0 75 -32t30 -75t-31 -73.5t-74 -30.5q-41 0 -72.5 30.5t-31.5 73.5z" />
<glyph unicode="/" horiz-adv-x="716" d="M-16 63q0 55 270 660l317 700q27 61 84 62q80 0 80 -76q0 -55 -270 -659l-318 -701q-27 -61 -84 -61q-79 -1 -79 75z" />
<glyph unicode="0" d="M49 737q0 276 103 484q131 264 378 264q250 0 381 -264q100 -207 101 -484q0 -276 -101 -485q-131 -264 -381 -264q-248 0 -378 264q-103 209 -103 485zM242 737q0 -211 49 -362q74 -229 239 -230q168 0 242 230q47 152 47 362q0 211 -47 363q-74 227 -242 227 q-166 0 -239 -227q-49 -152 -49 -363z" />
<glyph unicode="1" d="M307 1395q0 33 23.5 55.5t54.5 22.5h313q55 0 56 -50v-1339q0 -96 -90 -96t-91 96v1231q-10 0 -52 -3t-70 -3q-144 0 -144 86z" />
<glyph unicode="2" d="M82 1024q0 203 130 332t335 129q162 0 277.5 -103.5t115.5 -263.5q0 -168 -100 -303l-490 -657h553q33 0 55.5 -23.5t22.5 -56.5t-23.5 -55.5t-54.5 -22.5h-706q-98 0 -99 74q0 63 168 272q281 346 314 391q168 233 168 361q0 98 -67 163.5t-165 65.5q-147 0 -207 -108 q-23 -39 -57 -199q-25 -109 -82 -109q-88 0 -88 113z" />
<glyph unicode="3" d="M86 328q0 100 76 100q55 0 92 -74q55 -117 72 -135q63 -74 182 -74q117 0 196.5 78t79.5 195q0 174 -94 233q-39 25 -176 45q-94 14 -94 76q0 49 78 74q113 35 143 57q78 57 78 184q0 100 -53 166q-57 74 -154 74q-119 0 -164 -78q-6 -12 -45 -143q-23 -78 -84 -78 q-82 0 -82 84q0 164 109.5 268.5t273.5 104.5t271.5 -108.5t107.5 -272.5q0 -207 -172 -311q119 -35 184.5 -133.5t65.5 -225.5q0 -201 -131 -323.5t-334 -122.5q-154 0 -283 90q-143 103 -143 250z" />
<glyph unicode="4" d="M27 442q0 57 258 480l303 481q49 82 141 82q137 0 137 -152v-796q92 0 109 -5q61 -14 61 -75t-61 -74q-16 -4 -109 -4q0 -10 6.5 -80t6.5 -117q0 -195 -103 -194q-102 0 -102 194q0 47 6 117t6 80h-582q-77 0 -77 63zM252 537h434v753h-4z" />
<glyph unicode="5" d="M90 231q0 80 66 80q25 0 75 -39q72 -55 109 -75q76 -39 162 -39q127 0 205 96q74 90 73 221q0 133 -57 217q-68 96 -195 96q-47 0 -128 -27.5t-119 -27.5q-61 0 -62 55q0 125 33 320l57 317q6 47 68 48h506q31 0 54.5 -23t23.5 -55q0 -94 -232 -95q-63 0 -156.5 7.5 t-105.5 7.5l-59 -400q78 43 192 43q168 0 277 -143q96 -131 96 -305q0 -229 -121 -371q-127 -152 -352 -151q-117 0 -250 63q-160 76 -160 180z" />
<glyph unicode="6" d="M88 494q0 264 150 528q137 246 358 422q53 41 84 41q33 0 53.5 -26.5t20.5 -57.5t-72 -98q-184 -172 -313 -410h4l89 30q89 30 142 29q180 0 283 -159q86 -135 86 -326q0 -197 -123 -336q-129 -143 -324 -143q-201 0 -323 155q-115 144 -115 351zM268 475q0 -135 60 -219 q70 -98 196 -98q129 0 199 98q57 84 57 219q0 319 -256 320q-127 0 -196 -99q-60 -86 -60 -221z" />
<glyph unicode="7" d="M76 1395q0 33 23.5 55.5t54.5 22.5h739q92 0 92 -58q0 -31 -35 -110l-544 -1252q-27 -66 -109 -65q-27 0 -47.5 21.5t-20.5 47.5q0 111 142 404l260 506q141 272 141 333q0 8 -4 15h-614q-31 0 -54.5 23.5t-23.5 56.5z" />
<glyph unicode="8" d="M84 453q0 131 70.5 235.5t193.5 132.5q-190 119 -190 328q0 152 112 248q106 88 260 88q156 0 263 -88q111 -96 110 -248q0 -209 -190 -328q125 -29 194.5 -133t69.5 -235q0 -197 -125 -331t-322 -134q-195 0 -320.5 134t-125.5 331zM276 444q0 -123 66 -206 q70 -92 188 -93q119 0 191 93q63 84 63 206q0 123 -63 205q-72 90 -191 90t-188 -90q-66 -82 -66 -205zM326 1112q0 -96 55 -156.5t149 -60.5q96 0 150.5 60.5t54.5 156.5t-54 155.5t-151 59.5q-94 0 -149 -59.5t-55 -155.5z" />
<glyph unicode="9" d="M88 1006q0 197 127 338t320 141q203 0 325 -156q113 -143 113 -350q0 -264 -148 -528q-137 -246 -360 -422q-51 -41 -84 -41q-31 0 -52.5 26.5t-21.5 57.5q0 33 72 98q184 170 313 410h-4q-20 0 -102 -29t-129 -29q-178 0 -281 158q-88 138 -88 326zM281 997 q0 -319 256 -319q129 0 196 98q59 86 60 221q0 135 -58 220q-70 98 -198 98q-127 0 -197 -98q-59 -85 -59 -220z" />
<glyph unicode=":" horiz-adv-x="395" d="M92 92q0 43 31 75t74 32t73.5 -32t30.5 -75t-30.5 -73.5t-73.5 -30.5t-74 30.5t-31 73.5zM92 788q0 43 31 74t74 31t73.5 -31t30.5 -74t-30.5 -74.5t-73.5 -31.5t-74 31.5t-31 74.5z" />
<glyph unicode=";" horiz-adv-x="389" d="M37 -182q0 45 57 159q41 72 79 147t97 75q33 0 57.5 -22.5t24.5 -55.5q0 -47 -57 -160l-80 -146q-39 -75 -96 -75q-33 0 -57.5 22.5t-24.5 55.5zM143 788q0 43 31 74t74 31t73.5 -31t30.5 -74t-30.5 -74.5t-73.5 -31.5t-74 31.5t-31 74.5z" />
<glyph unicode="&#x3c;" horiz-adv-x="1146" d="M53 524q0 57 74 94l448 236q397 205 451 205q29 0 48.5 -23.5t19.5 -52.5q0 -47 -66 -80l-762 -379l762 -381q66 -33 66 -80q0 -29 -19.5 -52t-48.5 -23q-53 0 -451 205l-448 235q-74 37 -74 96z" />
<glyph unicode="=" horiz-adv-x="1142" d="M53 307q0 86 88 86h860q88 0 89 -86q0 -84 -89 -84h-860q-88 0 -88 84zM53 739q0 84 88 84h860q88 0 89 -84q0 -86 -89 -86h-860q-88 0 -88 86z" />
<glyph unicode="&#x3e;" horiz-adv-x="1155" d="M57 63q0 47 66 80l762 381l-762 379q-66 33 -66 80q0 29 19.5 52.5t48.5 23.5q53 0 450 -205l449 -236q74 -37 74 -94q0 -59 -74 -96l-449 -235q-397 -205 -450 -205q-29 0 -48.5 23t-19.5 52z" />
<glyph unicode="?" horiz-adv-x="868" d="M16 1174q0 135 138 227q121 84 262 84q176 0 301 -101q135 -109 135 -280q0 -160 -92 -265.5t-252 -140.5q0 -14 3 -62t3 -77q0 -164 -96 -164q-90 0 -90 97v235q0 90 86 125l159 57q86 51 86 178q0 102 -66.5 165t-170.5 63q-117 0 -176 -62q-20 -23 -66 -114 q-29 -61 -76 -62q-88 1 -88 97zM313 92q0 43 31 75t74 32t73.5 -32t30.5 -75t-30.5 -73.5t-73.5 -30.5t-74 30.5t-31 73.5z" />
<glyph unicode="@" horiz-adv-x="1591" d="M49 737q0 313 229.5 530.5t544.5 217.5q285 0 494 -164q223 -176 223 -453q0 -219 -141 -391q-150 -184 -367 -184q-123 0 -143 119h-4q-106 -119 -236 -119q-131 0 -220 96t-89 229q0 205 127 365q137 172 336 172q166 0 239 -156q20 74 33 95q27 49 76 49q66 0 66 -47 q0 -98 -80 -300t-80 -302q0 -59 57 -60q119 0 201 152q70 129 69 258q0 227 -167 370q-160 135 -394 136q-258 0 -438 -177.5t-180 -435.5q0 -270 186 -442q180 -170 451 -170q145 0 266 59q61 31 164 109q76 59 112 59q51 0 52 -49q0 -115 -252 -223q-219 -92 -357 -92 q-319 0 -544 213q-234 219 -234 536zM520 637q0 -76 47 -131t121 -55q125 0 209 141q70 121 70 256q0 150 -154 149q-131 0 -215 -116q-78 -107 -78 -244z" />
<glyph unicode="A" horiz-adv-x="1230" d="M8 63q0 27 25 93l452 1218q41 111 129 111t129 -111l453 -1218q25 -66 25 -93q0 -35 -26 -55t-60 -20q-74 0 -125 141l-58 193h-676l-55 -193q-53 -141 -127 -141q-35 0 -60.5 20t-25.5 55zM332 477h565l-281 797h-4z" />
<glyph unicode="B" horiz-adv-x="1048" d="M66 98v1276q0 98 96 99h317q160 0 273 -95q121 -100 120 -258q0 -109 -51 -194q-55 -96 -151 -127v-4q135 -14 225 -120t90 -245q0 -199 -143 -317q-133 -113 -334 -113h-346q-96 0 -96 98zM246 158h254q127 0 216 73.5t89 198.5t-88 201q-82 70 -209 69h-262v-542z M246 850h205q106 0 173.5 65.5t67.5 171.5q0 109 -63.5 168.5t-171.5 59.5h-211v-465z" />
<glyph unicode="C" horiz-adv-x="1159" d="M29 737q0 311 166 520q180 227 483 228q113 0 250 -53q172 -66 172 -162q0 -86 -74 -86q-29 0 -76 37q-68 51 -104 69q-76 37 -168 37q-223 0 -348 -190q-109 -164 -109 -400q0 -231 105 -397q125 -195 342 -195q117 0 244.5 65.5t146.5 65.5q72 0 71 -83 q0 -98 -192 -160q-145 -45 -270 -45q-299 0 -478 231q-161 211 -161 518z" />
<glyph unicode="D" horiz-adv-x="1241" d="M72 98v1276q0 98 96 99h354q305 0 482 -216q166 -201 165 -512q0 -315 -149 -518q-168 -227 -473 -227h-379q-96 0 -96 98zM252 158h258q238 0 360 182q106 156 107 405q0 248 -113 400q-127 170 -366 170h-246v-1157z" />
<glyph unicode="E" horiz-adv-x="782" d="M41 98v1276q0 98 96 99h518q88 0 88 -84q0 -86 -88 -86h-434v-482h395q88 0 89 -84q0 -86 -89 -86h-395v-481h434q88 0 88 -86q0 -84 -88 -84h-518q-96 0 -96 98z" />
<glyph unicode="F" horiz-adv-x="804" d="M55 84v1290q0 98 97 99h512q88 0 88 -84q0 -86 -88 -86h-428v-482q16 0 107 8.5t149 8.5q211 0 210 -101q0 -102 -208 -102q-55 0 -147.5 8t-110.5 8v-567q0 -96 -91 -96q-90 0 -90 96z" />
<glyph unicode="G" horiz-adv-x="1304" d="M23 737q0 319 170 527q182 221 495 221q123 0 291 -60q209 -74 209 -176q0 -37 -25.5 -61.5t-60.5 -24.5q-31 0 -92 43q-86 57 -133 78q-94 43 -201 43q-225 0 -352 -188q-109 -164 -109 -402q0 -244 109 -405q127 -186 360 -187q221 0 328 162q92 137 92 367 q-14 0 -71.5 -4t-92.5 -4q-178 0 -178 94q0 84 88 84h303q131 0 131 -150q0 -707 -622 -706q-299 0 -478 231q-161 211 -161 518z" />
<glyph unicode="H" horiz-adv-x="1398" d="M135 96v1280q0 109 90 109t90 -109v-559h768v559q0 109 91 109q90 0 90 -109v-1280q0 -109 -90 -108q-90 0 -91 108v563h-768v-563q0 -109 -90 -108q-90 -1 -90 108z" />
<glyph unicode="I" horiz-adv-x="450" d="M135 84v1305q0 96 90 96t90 -96v-1305q0 -96 -90 -96t-90 96z" />
<glyph unicode="J" horiz-adv-x="854" d="M100 154q0 76 72 75q29 0 94.5 -42t147.5 -42q180 0 180 373q0 115 -21.5 360.5t-21.5 344.5q0 262 113 262q90 0 90 -96v-1014q0 -387 -355 -387q-88 0 -182 41q-117 49 -117 125z" />
<glyph unicode="K" horiz-adv-x="1204" d="M106 84v1305q0 96 91 96q90 0 90 -96v-539l350 340q313 295 373 295q78 0 77 -78q0 -82 -276 -326l-358 -301l381 -352q309 -295 309 -360q0 -35 -26.5 -57.5t-61.5 -22.5q-80 0 -391 315l-377 397v-616q0 -96 -90 -96q-91 0 -91 96z" />
<glyph unicode="L" horiz-adv-x="782" d="M86 98v1291q0 96 90 96t90 -96v-1219h385q88 0 88 -86q0 -84 -88 -84h-469q-96 0 -96 98z" />
<glyph unicode="M" horiz-adv-x="1740" d="M76 80q0 201 82 627l127 641q23 137 141 137q104 0 131 -94l311 -1078h4l312 1078q27 94 131 94q119 0 141 -137l127 -641q82 -426 82 -627q0 -92 -84 -92q-86 0 -96 78l-170 1183h-4l-348 -1188q-23 -74 -93 -73q-70 0 -92 73l-348 1188h-4l-170 -1183q-10 -78 -96 -78 q-84 0 -84 92z" />
<glyph unicode="N" horiz-adv-x="1400" d="M135 84v1294q0 106 82 107q61 0 127 -94l737 -1069h4v1067q0 96 91 96q90 0 90 -96v-1295q0 -106 -82 -106q-61 0 -127 94l-738 1071h-4v-1069q0 -96 -90 -96t-90 96z" />
<glyph unicode="O" horiz-adv-x="1370" d="M47 737q0 305 164 516q178 231 475 232q295 0 475 -232q164 -211 164 -516t-164 -518q-178 -231 -475 -231t-475 231q-164 213 -164 518zM240 737q0 -242 100 -401q119 -190 346 -191q225 0 346 191q100 160 101 401q0 240 -101 400q-121 190 -346 190q-227 0 -346 -190 q-100 -160 -100 -400z" />
<glyph unicode="P" horiz-adv-x="1013" d="M57 84v1290q0 98 97 99h356q205 0 339 -129.5t134 -333.5q0 -303 -246 -402q-145 -57 -499 -57q0 -14 8 -121.5t8 -177.5q0 -264 -107 -264q-90 0 -90 96zM238 707h266q129 0 214 87t85 216q0 139 -83 222t-224 83h-258v-608z" />
<glyph unicode="Q" horiz-adv-x="1443" d="M45 737q0 305 164 516q180 231 475 232q295 0 475 -232q164 -211 164 -516q0 -266 -127 -467l111 -104q76 -78 75 -119q0 -33 -22.5 -54.5t-54.5 -21.5q-39 0 -115 74l-98 102q-164 -160 -408 -159q-297 0 -475 231q-164 213 -164 518zM238 737q0 -242 100 -401 q119 -190 346 -191q178 0 291 117l-92 88q-66 68 -66 101q0 35 22.5 59.5t57.5 24.5q33 0 90 -54l78 -80q66 143 65 336q0 240 -100 400q-121 190 -346 190t-346 -190q-100 -160 -100 -400z" />
<glyph unicode="R" horiz-adv-x="1017" d="M59 84v1290q0 98 97 99h333q176 0 308 -109q139 -115 139 -289q0 -229 -131 -330q-111 -84 -344 -90l280 -295q219 -240 220 -303q0 -31 -26 -50t-56 -19q-66 0 -326 293l-313 364v-561q0 -96 -90 -96q-91 0 -91 96zM240 793h245q141 0 206 64.5t65 205.5 q0 113 -81 182.5t-194 69.5h-241v-522z" />
<glyph unicode="S" horiz-adv-x="976" d="M39 166q0 92 76 92q14 0 123.5 -56.5t207.5 -56.5q131 0 215 84t84 215q0 141 -180 220l-332 135q-180 104 -180 307q0 162 137 274q127 104 293 105q104 0 213 -37q145 -49 146 -135q0 -33 -22.5 -56.5t-55.5 -23.5q-25 0 -109 47t-178 47q-96 0 -163.5 -57.5 t-67.5 -151.5q0 -129 180 -205l332 -139q180 -111 180 -321q0 -209 -141.5 -337t-352.5 -128q-117 0 -239 37q-166 51 -166 141z" />
<glyph unicode="T" horiz-adv-x="935" d="M18 1389q0 84 88 84h725q88 0 89 -84q0 -98 -177 -99q-43 0 -108.5 6.5t-75.5 6.5v-1219q0 -96 -90 -96t-90 96v1219q-12 0 -77.5 -6.5t-108.5 -6.5q-175 1 -175 99z" />
<glyph unicode="U" horiz-adv-x="1312" d="M92 584v805q0 96 90 96q106 0 107 -211q0 -74 -18.5 -276.5t-18.5 -311.5q0 -250 78 -377q96 -164 327 -164q229 0 326 164q78 127 78 377q0 109 -18.5 311.5t-18.5 276.5q0 211 109 211q90 0 90 -96v-805q0 -287 -142 -439q-145 -158 -424 -157q-281 0 -426 157 q-139 152 -139 439z" />
<glyph unicode="V" horiz-adv-x="1196" d="M45 1411q0 31 23.5 52.5t56.5 21.5q47 0 76 -37q14 -20 35 -80l368 -1075h4l369 1075q20 59 35 80q29 37 75 37q33 0 56.5 -21.5t23.5 -52.5q0 -78 -202 -639l-254 -686q-35 -98 -105 -98t-104 98l-254 686q-203 561 -203 639z" />
<glyph unicode="W" horiz-adv-x="1683" d="M39 1403q0 35 23.5 58.5t58.5 23.5q84 0 98 -84l191 -1178h4l336 1190q20 72 92 72t92 -72l336 -1190h4l190 1178q14 84 99 84q35 0 58.5 -23.5t23.5 -58.5q0 -348 -236 -1311q-25 -104 -125 -104q-109 0 -141 121l-299 1079h-4l-299 -1079q-33 -121 -142 -121 q-106 0 -129 121l-139 653q-92 436 -92 641z" />
<glyph unicode="X" horiz-adv-x="1134" d="M-23 63q0 57 222 367l264 361l-225 309q-184 258 -185 309q0 33 23.5 54.5t56.5 21.5q80 0 244 -250l190 -313l191 313q164 250 243 250q33 0 56.5 -21.5t23.5 -54.5q0 -51 -184 -309l-225 -309l264 -361q221 -309 221 -367q0 -31 -25.5 -53t-56.5 -22q-78 0 -276 295 l-232 364l-231 -364q-199 -295 -277 -295q-33 0 -57.5 22t-24.5 53z" />
<glyph unicode="Y" horiz-adv-x="980" d="M12 1411q0 33 24.5 53.5t57.5 20.5q80 0 240 -271l188 -344l189 344q160 270 239 271q33 0 57.5 -20.5t24.5 -53.5q0 -47 -190 -356l-230 -365v-606q0 -96 -90 -96t-90 96v606l-229 365q-191 309 -191 356z" />
<glyph unicode="Z" horiz-adv-x="1093" d="M27 82q0 86 350 606l434 627h-661q-88 0 -89 80q0 78 89 78h796q94 0 94 -64q0 -92 -358 -621l-438 -630h735q88 0 88 -80q0 -78 -88 -78h-846q-106 0 -106 82z" />
<glyph unicode="[" horiz-adv-x="397" d="M41 -70v1456q0 98 96 99h142q31 0 54 -22.5t23 -55.5q0 -57 -51 -74q-23 -6 -96 -6v-1339q74 0 96 -6q51 -14 51 -72q0 -33 -22.5 -56.5t-54.5 -23.5h-142q-96 0 -96 100z" />
<glyph unicode="\" horiz-adv-x="800" d="M25 1409q0 76 79 76q57 0 84 -62l318 -700q270 -604 270 -660q0 -76 -80 -75q-57 0 -84 61l-317 701q-270 604 -270 659z" />
<glyph unicode="]" horiz-adv-x="462" d="M74 -90q0 57 51 72q23 6 96 6v1339q-74 0 -96 6q-51 16 -51 74q0 33 23.5 55.5t54.5 22.5h141q96 0 96 -99v-1456q0 -100 -96 -100h-141q-33 0 -55.5 23.5t-22.5 56.5z" />
<glyph unicode="^" horiz-adv-x="1146" d="M74 666q0 47 182 370l211 365q47 84 106 84t107 -84l211 -365q182 -324 182 -370q0 -68 -76 -68q-37 0 -63 35q-10 12 -39 67l-322 603l-321 -603q-29 -55 -39 -67q-27 -35 -63 -35q-76 0 -76 68z" />
<glyph unicode="_" horiz-adv-x="974" d="M-84 -207q0 51 59 51h1024q59 0 60 -51q0 -51 -60 -51h-1024q-59 0 -59 51z" />
<glyph unicode="`" horiz-adv-x="524" d="M35 1448q0 33 22.5 59.5t55.5 26.5q41 0 157 -49l147 -64q73 -31 72 -80q0 -33 -22.5 -59.5t-54.5 -26.5q-43 0 -158 50l-146 66q-73 32 -73 77z" />
<glyph unicode="a" horiz-adv-x="1097" d="M74 551q0 227 123 387q135 174 356 174q166 0 297 -145h4q0 72 10 96q16 49 74 49q37 0 60.5 -25.5t23.5 -62.5v-948q0 -37 -23.5 -62.5t-60.5 -25.5q-61 0 -78 57q-6 23 -6 109h-4q-115 -166 -297 -166q-221 0 -356 174q-123 160 -123 389zM254 551q0 -162 68 -272 q80 -133 231 -134q152 0 233 134q66 111 66 272q0 162 -66 272q-82 133 -233 133q-152 0 -231 -133q-68 -110 -68 -272z" />
<glyph unicode="b" horiz-adv-x="1034" d="M47 84v1415q0 98 90 98q109 0 109 -290q0 -82 -9.5 -205t-9.5 -137h4q102 147 291 147q215 0 346 -178q119 -160 119 -383t-119 -385q-131 -178 -346 -178q-213 0 -291 151h-4q0 -76 -10 -102q-18 -49 -80 -49q-90 0 -90 96zM209 551q0 -162 67 -272q80 -133 232 -134 q152 0 231 134q68 111 68 272q0 162 -68 272q-80 133 -231 133q-152 0 -232 -133q-67 -110 -67 -272z" />
<glyph unicode="c" horiz-adv-x="888" d="M51 551q0 238 125 393q135 168 367 168q96 0 176 -25q117 -37 117 -112q0 -31 -21.5 -54.5t-52.5 -23.5q-27 0 -93.5 29.5t-125.5 29.5q-152 0 -238 -131q-74 -115 -74 -274q0 -160 74 -275q86 -131 238 -131q66 0 132 31t85 31q70 0 69 -76q0 -76 -112 -115 q-82 -29 -174 -28q-231 0 -367 170q-125 155 -125 393z" />
<glyph unicode="d" horiz-adv-x="1169" d="M115 551q0 223 118 383q131 178 347 178q188 0 290 -147h4q0 14 -9 137t-9 205q0 291 109 290q90 0 90 -98v-1415q0 -96 -90 -96q-61 0 -80 49q-10 27 -11 102h-4q-78 -152 -290 -151q-215 0 -347 178q-118 162 -118 385zM295 551q0 -162 67 -272q80 -133 232 -134 q152 0 231 134q68 111 68 272q0 162 -68 272q-80 133 -231 133q-152 0 -232 -133q-67 -110 -67 -272z" />
<glyph unicode="e" horiz-adv-x="1042" d="M41 551q0 229 129 389q137 172 360 172q209 0 344 -166q125 -156 125 -368q0 -98 -100 -99h-678q0 -147 88 -240.5t234 -93.5q98 0 182 39q47 20 115 70q51 39 71 39q66 0 66 -80q0 -90 -180 -164q-150 -61 -256 -61q-240 0 -375 166q-125 153 -125 397zM221 616h598 q0 137 -74 234q-82 106 -215 106q-147 0 -229 -98q-74 -90 -80 -242z" />
<glyph unicode="f" horiz-adv-x="591" d="M23 1022q0 59 57 74q18 4 106 4q0 35 -2 98v88q0 162 47 227q66 84 250 84q39 0 71 -21.5t32 -57.5q0 -61 -54.5 -68.5t-107.5 -11.5q-55 -10 -55 -70v-268q10 0 39 2h43q121 0 120 -80q0 -80 -120 -80h-43q-29 2 -39 2v-860q0 -96 -91 -96q-90 0 -90 96v860 q-88 0 -106 4q-57 15 -57 74z" />
<glyph unicode="g" horiz-adv-x="1079" d="M61 551q0 227 123 387q135 174 357 174q78 0 154.5 -38t121.5 -99h4q0 70 13 96q20 41 84 41q37 0 60 -25.5t23 -62.5v-946q0 -233 -129 -375q-133 -150 -362 -149q-104 0 -246 51q-172 63 -172 149q0 84 76 84q25 0 138.5 -63.5t217.5 -63.5q184 0 252 137q45 94 45 297 h-4q-90 -158 -276 -157q-221 0 -357 176q-123 160 -123 387zM242 551q0 -162 67 -272q80 -133 232 -134q152 0 231 134q68 111 68 272q0 162 -68 272q-80 133 -231 133q-152 0 -232 -133q-67 -110 -67 -272z" />
<glyph unicode="h" horiz-adv-x="1003" d="M70 84v1415q0 98 90 98t90 -98l4 -530q113 143 301 143q178 0 278.5 -119t100.5 -299v-610q0 -96 -90 -96q-100 0 -101 198q0 53 9.5 186.5t9.5 200.5q0 178 -49 269q-61 115 -211 114q-150 0 -211 -114q-49 -90 -49 -269q0 -68 9 -200.5t9 -186.5q0 -199 -100 -198 q-90 0 -90 96z" />
<glyph unicode="i" horiz-adv-x="446" d="M113 1374q0 45 31.5 78t78.5 33q45 0 78 -33t33 -78q0 -47 -33 -79.5t-78 -32.5q-47 0 -78.5 32.5t-31.5 79.5zM133 84v932q0 96 90 96t90 -96v-932q0 -96 -90 -96t-90 96z" />
<glyph unicode="j" horiz-adv-x="446" d="M113 1374q0 45 31.5 78t78.5 33q45 0 78 -33t33 -78q0 -47 -32 -79.5t-79 -32.5t-78.5 32.5t-31.5 79.5zM133 -350v1366q0 96 90 96t90 -96v-1366q0 -96 -90 -96t-90 96z" />
<glyph unicode="k" horiz-adv-x="952" d="M98 84v1415q0 98 90 98t91 -98v-774l229 205q215 182 266 182q76 0 76 -80q0 -59 -201 -219l-254 -186l293 -269q225 -219 225 -299q0 -29 -22.5 -50t-52.5 -21q-80 0 -299 237l-260 299v-440q0 -96 -91 -96q-90 0 -90 96z" />
<glyph unicode="l" horiz-adv-x="450" d="M135 84v1415q0 98 90 98t90 -98v-1415q0 -96 -90 -96t-90 96z" />
<glyph unicode="m" horiz-adv-x="1585" d="M57 84v932q0 96 90 96t91 -129l4 -4q102 133 274 133q190 0 299 -186q127 186 334 186q178 0 278.5 -119t100.5 -299v-610q0 -96 -90 -96q-102 0 -103 196q0 55 11.5 197.5t11.5 214.5q0 360 -244 360q-242 0 -242 -360q0 -72 11.5 -213t11.5 -199q0 -197 -102 -196 q-102 0 -103 196q0 55 11.5 197.5t11.5 214.5q0 360 -244 360q-242 0 -242 -360q0 -72 11.5 -213t11.5 -199q0 -197 -103 -196q-90 0 -90 96z" />
<glyph unicode="n" horiz-adv-x="978" d="M57 84v932q0 96 90 96q59 0 78 -45q12 -27 13 -94l4 -4q113 143 301 143q178 0 278.5 -117.5t100.5 -300.5v-610q0 -96 -91 -96q-100 0 -100 198q0 53 9.5 186.5t9.5 200.5q0 178 -50 269q-61 115 -211 114q-150 0 -210 -114q-49 -90 -50 -269q0 -68 9.5 -200.5 t9.5 -186.5q0 -199 -101 -198q-90 0 -90 96z" />
<glyph unicode="o" horiz-adv-x="1036" d="M39 551q0 227 123 387q135 174 356 174t356 -174q123 -160 123 -387q0 -229 -123 -389q-133 -174 -356 -174t-356 174q-123 160 -123 389zM219 551q0 -162 68 -272q80 -133 231 -134q152 0 232 134q68 111 67 272q0 162 -67 272q-80 133 -232 133t-231 -133 q-68 -110 -68 -272z" />
<glyph unicode="p" horiz-adv-x="1081" d="M72 -350v1366q0 96 90 96q61 0 80 -49q10 -27 10 -100h4q76 150 291 149q215 0 346 -178q119 -160 119 -383t-119 -385q-131 -178 -346 -178q-190 0 -291 149h-4q0 -14 8 -125.5t8 -185.5q0 -272 -106 -272q-90 0 -90 96zM233 551q0 -162 66 -272q80 -133 233 -134 q152 0 232 134q68 111 67 272q0 162 -67 272q-80 133 -232 133q-154 0 -233 -133q-66 -110 -66 -272z" />
<glyph unicode="q" horiz-adv-x="1112" d="M57 551q0 223 119 383q131 178 346 178q213 0 291 -149h4q0 74 10 100q18 49 80 49q90 0 90 -96v-1366q0 -96 -90 -96q-106 0 -106 272q0 74 8 185.5t8 125.5h-4q-100 -150 -291 -149q-215 0 -346 178q-119 162 -119 385zM238 551q0 -162 67 -272q80 -133 232 -134 q152 0 231 134q68 111 68 272q0 162 -68 272q-80 133 -231 133q-152 0 -232 -133q-67 -110 -67 -272z" />
<glyph unicode="r" horiz-adv-x="641" d="M55 84v932q0 96 90 96q70 0 86 -68q4 -18 5 -122h4q35 74 98 129q74 61 147 61q100 0 101 -92q0 -59 -90 -92q-133 -47 -170 -80q-90 -76 -90 -240v-524q0 -96 -91 -96q-90 0 -90 96z" />
<glyph unicode="s" horiz-adv-x="880" d="M37 197q0 33 20.5 57.5t53.5 24.5q23 0 128 -67t214 -67q76 0 137 35q74 41 74 113q0 88 -152 160l-281 129q-150 90 -149 221q0 143 117 229q106 80 254 80q104 0 219 -47q143 -57 143 -147q0 -74 -82 -74q-27 0 -107.5 56t-172.5 56q-76 0 -127 -30q-63 -39 -64 -109 q0 -78 150 -141q274 -119 280 -123q152 -90 152 -225q0 -162 -121 -254q-111 -86 -277 -86q-115 0 -245 49q-164 64 -164 160z" />
<glyph unicode="t" horiz-adv-x="602" d="M39 1022q0 59 57 74q18 4 107 4q0 12 -5 68.5t-5 93.5q0 174 100 174t100 -174q0 -37 -5 -93.5t-5 -68.5q88 0 106 -4q57 -14 58 -74q0 -59 -58 -74q-18 -4 -106 -4v-860q0 -96 -90 -96t-90 96v860q-88 0 -107 4q-57 15 -57 74z" />
<glyph unicode="u" horiz-adv-x="1046" d="M92 426v590q0 96 90 96q100 0 101 -192q0 -55 -10.5 -193.5t-10.5 -210.5q0 -371 262 -371q260 0 260 371q0 72 -10 210t-10 194q0 193 102 192q90 0 90 -96v-590q0 -205 -114.5 -321.5t-317.5 -116.5q-205 0 -318.5 116.5t-113.5 321.5z" />
<glyph unicode="v" horiz-adv-x="923" d="M35 1028q0 35 23.5 59.5t58.5 24.5q72 0 94 -70l248 -761h4l248 761q23 70 94 70q35 0 58.5 -24.5t23.5 -59.5q0 -72 -146 -469l-186 -493q-27 -78 -94 -78q-68 0 -94 78l-187 493q-145 397 -145 469z" />
<glyph unicode="w" horiz-adv-x="1587" d="M39 1032q0 35 24.5 57.5t61.5 22.5q72 0 100 -92l232 -752h4l227 725q18 61 33 82q25 37 74 37q47 0 73 -37q12 -20 33 -82l227 -725h5l231 752q27 92 100 92q35 0 60.5 -22.5t25.5 -57.5q0 -66 -139 -461l-174 -489q-33 -94 -104 -94q-74 0 -103 94l-233 743h-4 l-234 -743q-31 -94 -102 -94q-74 0 -105 94l-176 489q-137 395 -137 461z" />
<glyph unicode="x" horiz-adv-x="958" d="M16 70q0 59 160 268l199 246l-172 217q-141 186 -142 229q0 33 21.5 57.5t54.5 24.5q70 0 193 -172l149 -225l150 225q123 172 192 172q33 0 54.5 -24.5t21.5 -57.5q0 -43 -141 -229l-172 -217l198 -246q160 -209 160 -268q0 -35 -23.5 -58.5t-58.5 -23.5q-72 0 -211 200 l-170 263l-170 -263q-139 -201 -211 -200q-35 0 -58.5 23.5t-23.5 58.5z" />
<glyph unicode="y" horiz-adv-x="860" d="M10 1036q0 33 24.5 54.5t57.5 21.5q68 0 90 -68l250 -755h4l246 755q23 68 86 68q33 0 57.5 -21.5t24.5 -54.5q0 -94 -213 -688l-266 -727q-25 -68 -88 -67q-33 0 -57.5 21.5t-24.5 53.5q0 45 63 213l78 197l-190 506q-142 389 -142 491z" />
<glyph unicode="z" horiz-adv-x="909" d="M41 63q0 68 250 441l307 440h-446q-90 0 -91 78q0 78 91 78h606q88 0 88 -64q0 -66 -254 -436l-309 -438l6 -4h489q90 0 90 -80q0 -78 -90 -78h-649q-88 0 -88 63z" />
<glyph unicode="{" horiz-adv-x="591" d="M18 657q0 53 91 80q98 31 98 219q0 39 -4 121t-4 123q0 135 39 201q49 84 176 84h78q82 0 81 -62q0 -49 -50 -56t-99 -13q-51 -18 -51 -92q0 -25 5 -108t5 -136q0 -336 -197 -359v-4q197 -23 197 -358q0 -51 -5 -135t-5 -109q0 -72 51 -90q49 -6 99 -13t50 -59 q0 -61 -81 -61h-78q-127 0 -176 86q-39 66 -39 201q0 41 4 120.5t4 116.5q0 193 -98 226q-91 28 -91 77z" />
<glyph unicode="|" horiz-adv-x="374" d="M102 76v1431q0 90 84 90t84 -90v-1431q0 -88 -84 -88t-84 88z" />
<glyph unicode="}" horiz-adv-x="595" d="M20 -109q0 51 50.5 58.5t99.5 13.5q51 18 51 90q0 25 -5 109t-5 135q0 336 197 358v4q-197 23 -197 359q0 53 5 136t5 108q0 74 -51 92q-49 6 -99.5 13t-50.5 56q0 61 82 62h78q127 0 178 -88q37 -66 37 -197q0 -35 -3 -99.5t-3 -90.5q0 -125 6 -158q18 -90 90 -115 q90 -31 90 -80q0 -51 -90 -77q-98 -29 -98 -220q0 -37 4 -119.5t4 -123.5q0 -135 -39 -201q-49 -86 -176 -86h-78q-82 0 -82 61z" />
<glyph unicode="~" horiz-adv-x="1142" d="M88 434q0 92 86 165t180 73t237.5 -70t190.5 -70q43 0 96.5 70t104.5 70q27 0 49.5 -17.5t22.5 -42.5q0 -92 -86 -164.5t-181 -72.5q-92 0 -236 69.5t-192 69.5q-43 0 -96 -69.5t-104 -69.5q-27 0 -49.5 17t-22.5 42z" />
<glyph unicode="&#xa1;" horiz-adv-x="505" d="M147 1008q0 43 31 73.5t74 30.5t73.5 -30.5t30.5 -73.5t-30.5 -75t-73.5 -32t-74 32t-31 75zM162 -287v895q0 96 90 97q90 0 90 -97v-895q0 -98 -90 -98t-90 98z" />
<glyph unicode="&#xa2;" horiz-adv-x="808" d="M12 551q0 205 97 354q106 166 297 199q0 6 -2.5 32.5t-2.5 43.5q0 88 48 88q41 0 45 -62q-2 29 -2 -94q102 0 186 -27q119 -35 119 -110q0 -31 -21.5 -54.5t-52.5 -23.5q-27 0 -99.5 29.5t-131.5 29.5v-811q66 0 138 31t91 31q70 0 70 -76q0 -78 -119 -117 q-84 -27 -180 -26q0 -123 2 -94q-4 -61 -45 -62q-47 0 -48 88q0 16 2.5 44t2.5 34q-190 33 -297 199q-97 149 -97 354zM193 551q0 -127 49 -229q55 -119 164 -158v776q-106 -41 -164 -160q-49 -102 -49 -229z" />
<glyph unicode="&#xa3;" horiz-adv-x="1130" d="M18 739q0 88 136 88q23 0 60.5 -2t49.5 -2q-100 180 -100 295q0 164 143 271q129 96 299 96q154 0 303 -105q166 -117 166 -262q0 -88 -86 -88q-49 0 -88 74q-57 109 -86 137q-72 74 -207 74q-102 0 -178 -51q-86 -59 -86 -158q0 -68 37 -148l72 -135q14 0 75.5 5.5 t102.5 5.5q174 0 174 -95q0 -94 -158 -94q-33 0 -86 4t-67 4q14 -80 14 -135q0 -90 -53 -190q-49 -92 -123 -158h690q88 0 88 -86q0 -84 -88 -84h-819q-109 0 -109 86q0 31 62 98q84 90 112 135q59 96 60 201q0 80 -15 133q-12 0 -62 -4t-79 -4q-154 0 -154 94z" />
<glyph unicode="&#xa4;" horiz-adv-x="1175" d="M80 737q0 195 100 307q-98 98 -98 132q0 27 21.5 50t48.5 23q20 0 129 -110q117 111 307 110q190 0 307 -110q109 111 129 110q27 0 48.5 -23.5t21.5 -49.5q0 -33 -99 -132q100 -113 101 -307q0 -197 -101 -309q98 -98 99 -131q0 -27 -21.5 -50.5t-48.5 -23.5 q-23 0 -129 113q-117 -113 -307 -113q-193 0 -307 113q-109 -113 -129 -113q-27 0 -48.5 23.5t-21.5 50.5q0 33 98 131q-100 112 -100 309zM248 737q0 -147 96 -251.5t244 -104.5q145 0 242.5 104.5t97.5 251.5t-97.5 251t-242.5 104q-147 0 -243.5 -104t-96.5 -251z" />
<glyph unicode="&#xa5;" horiz-adv-x="1017" d="M-25 1417q0 27 22.5 47.5t49.5 20.5q82 0 258 -273l203 -342l205 342q174 272 256 273q29 0 50 -20.5t21 -47.5q0 -59 -159 -301l-199 -293q6 0 52 4t79 4q150 0 150 -75q0 -82 -181 -82q-49 0 -114.5 6t-69.5 6v-145q4 0 69.5 6t114.5 6q180 0 181 -82q0 -80 -183 -80 q-47 0 -112.5 6t-69.5 6q0 -8 7 -83.5t7 -126.5q0 -205 -104 -205t-105 205q0 51 7.5 126.5t7.5 83.5q-2 0 -67.5 -6t-112.5 -6q-184 0 -185 80q0 82 183 82q47 0 112.5 -6t69.5 -6v145q-4 0 -69.5 -6t-112.5 -6q-182 0 -183 82q0 76 152 75q31 0 78 -4t51 -4l-199 293 q-160 242 -160 301z" />
<glyph unicode="&#xa6;" horiz-adv-x="376" d="M104 76v422q0 90 84 90t84 -90v-422q0 -88 -84 -88t-84 88zM104 1085v422q0 90 84 90t84 -90v-422q0 -88 -84 -88t-84 88z" />
<glyph unicode="&#xa7;" horiz-adv-x="1060" d="M18 559q0 227 250 352q-133 100 -133 236q0 168 137 260q117 78 295 78q143 0 273 -82q147 -94 147 -229q0 -96 -82 -97q-49 0 -86 66q-55 96 -78 119q-66 66 -186 65q-92 0 -160 -39q-80 -47 -80 -133q0 -106 189 -199q336 -164 350 -172q188 -127 188 -317 q0 -104 -63.5 -199.5t-159.5 -148.5q133 -94 133 -246t-145 -242q-125 -78 -285 -77q-141 0 -289 75q-174 92 -174 221q0 104 91 105q49 0 90 -64q59 -94 84 -116q72 -63 194 -64q94 0 164 35q90 43 90 129q0 106 -194 199q-354 166 -365 172q-195 125 -195 313zM199 573 q0 -82 100 -163q72 -61 207 -127l180 -82q176 135 176 260q0 98 -78 172q-59 55 -176 106l-184 78q-225 -94 -225 -244z" />
<glyph unicode="&#xa8;" horiz-adv-x="604" d="M0 1362q0 45 33 78t78 33q47 0 78.5 -33t31.5 -78q0 -47 -31.5 -80t-78.5 -33q-45 0 -78 33t-33 80zM381 1362q0 45 32.5 78t78.5 33q47 0 78.5 -33t31.5 -78q0 -47 -31.5 -80t-78.5 -33q-45 0 -78 33t-33 80z" />
<glyph unicode="&#xa9;" horiz-adv-x="1552" d="M35 737q0 307 217 527.5t524 220.5t524.5 -220.5t217.5 -527.5t-217.5 -528t-524.5 -221t-524 221t-217 528zM203 737q0 -240 168 -416t405 -176q238 0 406 176.5t168 415.5q0 238 -168 414t-406 176t-405.5 -176t-167.5 -414zM346 741q0 199 119 328t315 129 q119 0 234 -70q133 -80 133 -192q0 -59 -68 -59q-41 0 -78 47q-57 76 -71 90q-57 47 -150 47q-131 0 -202 -96q-63 -88 -64 -224q0 -127 68 -219q76 -102 198 -102q92 0 154 49q23 20 76 92q37 49 71 49q66 0 66 -57q0 -109 -133 -195q-119 -76 -234 -75 q-193 0 -313.5 131.5t-120.5 326.5z" />
<glyph unicode="&#xaa;" horiz-adv-x="819" d="M100 1149q0 141 85 238.5t227 97.5q106 0 170 -86h4q0 45 8 61q14 25 59 25q68 0 68 -53v-570q0 -53 -68 -53q-45 0 -59 25q-8 16 -8 61h-4q-63 -86 -170 -86q-141 0 -226.5 98.5t-85.5 241.5zM248 1149q0 -84 41 -145q49 -70 129 -70t127 70q43 61 43 145q0 82 -43 143 q-49 70 -127 70q-80 0 -127 -70q-43 -61 -43 -143z" />
<glyph unicode="&#xab;" horiz-adv-x="751" d="M37 555l203 367q31 55 69 55q82 0 82 -74q0 -37 -86 -180l-106 -168l106 -170q86 -143 86 -180q0 -72 -82 -72q-41 0 -69 53zM360 555l203 367q31 55 70 55q82 0 82 -74q0 -37 -86 -180l-107 -168l107 -170q86 -143 86 -180q0 -72 -82 -72q-41 0 -70 53z" />
<glyph unicode="&#xac;" horiz-adv-x="1134" d="M49 739q0 84 88 84h864q84 0 84 -88v-422q0 -90 -84 -90t-83 90v340h-781q-88 0 -88 86z" />
<glyph unicode="&#xad;" horiz-adv-x="1146" d="M55 518q0 84 88 84h861q88 0 88 -84t-88 -84h-861q-88 0 -88 84z" />
<glyph unicode="&#x2212;" horiz-adv-x="1146" d="M55 518q0 84 88 84h861q88 0 88 -84t-88 -84h-861q-88 0 -88 84z" />
<glyph unicode="&#xae;" horiz-adv-x="1552" d="M35 737q0 307 217 527.5t524 220.5t524.5 -220.5t217.5 -527.5t-217.5 -528t-524.5 -221t-524 221t-217 528zM203 737q0 -240 168 -416t405 -176q238 0 406 176.5t168 415.5q0 238 -168 414t-406 176t-405.5 -176t-167.5 -414zM471 369v741q0 45 47 45h270q150 0 222 -47 q88 -59 88 -201q0 -211 -211 -237l112 -166q90 -139 91 -166q0 -37 -76 -37q-53 0 -82 47l-195 316h-131v-295q0 -68 -67 -68q-68 0 -68 68zM606 788h156q96 0 137 19q63 29 64 111q0 113 -189 112h-168v-242z" />
<glyph unicode="&#xaf;" horiz-adv-x="602" d="M6 1339q0 86 88 86h414q88 0 88 -86q0 -84 -88 -84h-414q-88 0 -88 84z" />
<glyph unicode="&#x2c9;" horiz-adv-x="602" d="M6 1339q0 86 88 86h414q88 0 88 -86q0 -84 -88 -84h-414q-88 0 -88 84z" />
<glyph unicode="&#xb0;" horiz-adv-x="735" d="M74 1190q0 121 86 208t207 87q123 0 207.5 -87t84.5 -208t-85 -209t-207 -88q-121 0 -207 88t-86 209zM184 1190q0 -76 54.5 -130t128.5 -54q76 0 129 54t53 130t-53.5 130t-128.5 54q-74 0 -128.5 -54t-54.5 -130z" />
<glyph unicode="&#xb1;" horiz-adv-x="1146" d="M55 84q0 86 88 86h861q88 0 88 -86q0 -84 -88 -84h-861q-88 0 -88 84zM55 645q0 86 88 86h346q0 12 -5 66.5t-5 89.5q0 160 94 160t95 -160q0 -35 -5.5 -89.5t-5.5 -66.5h347q88 0 88 -86q0 -84 -88 -84h-347q0 -12 5.5 -66.5t5.5 -88.5q0 -162 -95 -162q-94 0 -94 162 q0 35 5 89t5 66h-346q-88 0 -88 84z" />
<glyph unicode="&#xb2;" horiz-adv-x="620" d="M16 645q0 37 214 287t214 325q0 51 -38.5 78t-92.5 27q-80 0 -123 -57q-12 -16 -49 -105q-25 -57 -59 -57q-63 0 -64 67q0 125 91 203q86 72 213 72q113 0 188 -53q82 -61 82 -170q0 -84 -74 -175l-297 -360q12 0 84 5t117 5q180 0 180 -73q0 -61 -78 -62h-446 q-62 0 -62 43z" />
<glyph unicode="&#xb3;" horiz-adv-x="770" d="M90 807q0 66 57 65q31 0 56 -41q35 -61 49 -77q43 -41 121 -41q66 0 112.5 47t46.5 110q0 90 -59 117q-16 6 -113 17q-59 8 -59 49q0 39 47 55q80 29 88 35q47 33 47 108q0 49 -37.5 80t-87.5 31q-70 0 -102 -39q-2 -4 -33 -72q-18 -39 -57 -39q-51 0 -51 58 q0 102 75 162q70 53 175 53q113 0 189.5 -59.5t76.5 -168.5q0 -127 -113 -188q162 -47 162 -213q0 -125 -98 -199q-88 -68 -220 -67q-102 0 -182 55q-90 64 -90 162z" />
<glyph unicode="&#xb4;" horiz-adv-x="534" d="M41 1341q0 49 73 80l146 64q115 49 158 49q31 0 54.5 -26.5t23.5 -59.5q0 -45 -74 -77l-148 -66q-115 -49 -155 -50q-33 0 -55.5 26.5t-22.5 59.5z" />
<glyph unicode="&#xb6;" horiz-adv-x="1144" d="M68 1094q0 199 170 297q139 82 352 82h391q96 0 96 -99v-1732q0 -88 -84 -88t-84 88v1693h-235v-1693q0 -88 -84 -88t-84 88v1069q-182 0 -305 98q-133 107 -133 285z" />
<glyph unicode="&#xb7;" horiz-adv-x="430" d="M104 627q0 45 33 78.5t78 33.5t78 -33.5t33 -78.5t-33 -79t-78 -34t-78 34t-33 79z" />
<glyph unicode="&#x2219;" horiz-adv-x="430" d="M104 627q0 45 33 78.5t78 33.5t78 -33.5t33 -78.5t-33 -79t-78 -34t-78 34t-33 79z" />
<glyph unicode="&#xb8;" horiz-adv-x="358" d="M-10 -299q0 55 43 55q18 0 53 -8t53 -8q72 0 72 55q0 35 -76 37t-76 39q0 25 74 129h109l-60 -86q29 6 43 6q51 0 96.5 -32.5t45.5 -82.5q0 -178 -228 -178q-149 0 -149 74z" />
<glyph unicode="&#xb9;" horiz-adv-x="546" d="M119 1411q0 61 57 62h213q39 0 39 -29v-780q0 -74 -74 -74t-73 74v686q-10 0 -36 -2t-40 -2q-86 -1 -86 65z" />
<glyph unicode="&#xba;" horiz-adv-x="780" d="M80 1149q0 141 85 238.5t226 97.5q139 0 225 -97.5t86 -238.5q0 -143 -85 -241.5t-226 -98.5t-226 98.5t-85 241.5zM227 1149q0 -82 39 -143q47 -72 125 -72q76 0 123 72q41 61 41 143q0 80 -41 141q-47 72 -123 72t-123 -72q-41 -61 -41 -141z" />
<glyph unicode="&#xbb;" horiz-adv-x="686" d="M4 205q0 37 86 180l107 170l-107 168q-86 143 -86 180q0 74 82 74q39 0 70 -55l202 -367l-202 -369q-29 -53 -70 -53q-82 0 -82 72zM328 205q0 37 86 180l106 170l-106 168q-86 143 -86 180q0 74 82 74q39 0 69 -55l203 -367l-203 -369q-29 -53 -69 -53q-82 0 -82 72z " />
<glyph unicode="&#xbc;" horiz-adv-x="1568" d="M33 1411q0 61 57 62h213q39 0 39 -29v-780q0 -74 -74 -74t-73 74v686q-8 0 -35 -2t-39 -2q-88 -1 -88 65zM344 27q0 55 264 684l310 729q27 61 71 61q72 0 72 -55q0 -51 -264 -682l-310 -731q-25 -61 -75 -62q-68 1 -68 56zM870 250q0 49 162 287l193 280q43 66 102 66 q102 0 103 -90v-467q55 0 71 -7q33 -12 33 -57t-33 -55q-16 -6 -71 -6q0 -14 3 -50t3 -57q0 -106 -80 -106t-80 106q0 20 3 56t3 51h-364q-48 0 -48 49zM1040 326h242v409h-4z" />
<glyph unicode="&#xbd;" horiz-adv-x="1564" d="M63 1411q0 61 58 62h213q39 0 39 -29v-780q0 -74 -74 -74t-74 74v686q-10 0 -35.5 -2t-39.5 -2q-87 -1 -87 65zM313 27q0 55 262 684l312 729q25 61 71 61q72 0 72 -55q0 -51 -264 -682l-309 -731q-27 -61 -76 -62q-68 1 -68 56zM918 43q0 37 214 287t214 325 q0 51 -43 80q-35 25 -89 25q-82 0 -122 -58q-14 -16 -52 -104q-23 -57 -57 -57q-63 0 -63 67q0 125 90 203q84 72 213 72q113 0 186 -54q84 -61 84 -170q0 -84 -74 -174l-297 -360h303q78 0 78 -64q0 -61 -78 -61h-446q-61 0 -61 43z" />
<glyph unicode="&#xbe;" horiz-adv-x="1564" d="M37 807q0 66 57 65q33 0 56 -41q35 -61 51 -77q41 -41 118 -41q66 0 113 47t47 110q0 90 -59 117q-14 6 -111 17q-61 8 -61 49q0 39 49 55q78 29 86 35q47 33 47 108q0 49 -37 80t-88 31q-70 0 -100 -39q-4 -4 -35 -72q-18 -39 -57 -39q-51 0 -52 58q0 102 76 162 q70 53 174 53q113 0 190 -59.5t77 -168.5q0 -127 -113 -188q162 -47 162 -213q0 -125 -99 -199q-88 -68 -219 -67q-102 0 -182 55q-90 64 -90 162zM459 27q0 55 264 684l309 729q27 61 72 61q72 0 72 -55q0 -51 -265 -682l-309 -731q-25 -61 -76 -62q-67 1 -67 56zM862 250 q0 49 162 287l193 280q45 66 102 66q102 0 102 -90v-467q55 0 72 -7q33 -12 33 -57t-33 -55q-16 -6 -72 -6q0 -14 3 -50t3 -57q0 -106 -79 -106q-78 0 -78 106q0 20 2 56t2 51h-365q-47 0 -47 49zM1032 326h242v409h-4z" />
<glyph unicode="&#xbf;" horiz-adv-x="784" d="M-25 -4q0 160 92.5 266.5t251.5 138.5q0 14 -4 62.5t-4 77.5q0 164 99 164q90 0 90 -97v-233q0 -92 -83 -124l-163 -61q-86 -51 -86 -178q0 -102 66.5 -164.5t171.5 -62.5q115 0 174 61q20 23 65 115q31 61 78 62q39 0 63.5 -28t24.5 -67q0 -135 -137 -229 q-123 -84 -262 -84q-176 0 -303 100q-134 109 -134 281zM305 1008q0 43 31 73.5t74 30.5t73.5 -30.5t30.5 -73.5t-30.5 -75t-73.5 -32t-74 32t-31 75z" />
<glyph unicode="&#xc0;" horiz-adv-x="1230" d="M8 63q0 27 25 93l452 1218q41 111 129 111t129 -111l453 -1218q25 -66 25 -93q0 -35 -26 -55t-60 -20q-74 0 -125 141l-58 193h-676l-55 -193q-53 -141 -127 -141q-35 0 -60.5 20t-25.5 55zM332 477h565l-281 797h-4zM387 1780q0 33 23.5 59.5t54.5 26.5q43 0 158 -49 l146 -64q73 -31 73 -78q0 -33 -22.5 -60.5t-55.5 -27.5q-41 0 -156 49l-147 67q-74 32 -74 77z" />
<glyph unicode="&#xc1;" horiz-adv-x="1230" d="M8 63q0 27 25 93l452 1218q41 111 129 111t129 -111l453 -1218q25 -66 25 -93q0 -35 -26 -55t-60 -20q-74 0 -125 141l-58 193h-676l-55 -193q-53 -141 -127 -141q-35 0 -60.5 20t-25.5 55zM332 477h565l-281 797h-4zM387 1675q0 47 74 78l147 64q115 49 156 49 q33 0 55.5 -27t22.5 -59q0 -45 -73 -77l-146 -67q-115 -49 -158 -49q-33 0 -55.5 27.5t-22.5 60.5z" />
<glyph unicode="&#xc2;" horiz-adv-x="1230" d="M8 63q0 27 25 93l452 1218q41 111 129 111t129 -111l453 -1218q25 -66 25 -93q0 -35 -26 -55t-60 -20q-74 0 -125 141l-58 193h-676l-55 -193q-53 -141 -127 -141q-35 0 -60.5 20t-25.5 55zM303 1665q0 53 47 74l264 112l265 -112q47 -20 47 -74q0 -78 -74 -78 q-37 0 -121 35l-117 53l-116 -53q-82 -35 -121 -35q-74 0 -74 78zM332 477h565l-281 797h-4z" />
<glyph unicode="&#xc3;" horiz-adv-x="1230" d="M8 63q0 27 25 93l452 1218q41 111 129 111t129 -111l453 -1218q25 -66 25 -93q0 -35 -26 -55t-60 -20q-74 0 -125 141l-58 193h-676l-55 -193q-53 -141 -127 -141q-35 0 -60.5 20t-25.5 55zM309 1688q0 61 70 98q55 31 121 31q41 0 114.5 -20.5t110.5 -20.5 q29 0 67.5 20.5t59.5 20.5q29 0 48.5 -26t19.5 -54q0 -61 -66 -101q-57 -31 -125 -30q-39 0 -112.5 20.5t-112.5 20.5q-27 0 -66 -20.5t-61 -20.5q-27 0 -47.5 26.5t-20.5 55.5zM332 477h565l-281 797h-4z" />
<glyph unicode="&#xc4;" horiz-adv-x="1230" d="M8 63q0 27 25 93l452 1218q41 111 129 111t129 -111l453 -1218q25 -66 25 -93q0 -35 -26 -55t-60 -20q-74 0 -125 141l-58 193h-676l-55 -193q-53 -141 -127 -141q-35 0 -60.5 20t-25.5 55zM313 1694q0 45 33 77.5t78 32.5q47 0 79 -32.5t32 -77.5q0 -47 -32 -80t-79 -33 q-45 0 -78 33t-33 80zM332 477h565l-281 797h-4zM694 1694q0 45 33 77.5t78 32.5q47 0 78.5 -32.5t31.5 -77.5q0 -47 -31.5 -80t-78.5 -33q-45 0 -78 33t-33 80z" />
<glyph unicode="&#xc5;" horiz-adv-x="1230" d="M8 63q0 27 25 93l452 1218q41 111 129 111t129 -111l453 -1218q25 -66 25 -93q0 -35 -26 -55t-60 -20q-74 0 -125 141l-58 193h-676l-55 -193q-53 -141 -127 -141q-35 0 -60.5 20t-25.5 55zM332 477h565l-281 797h-4zM422 1714q0 80 57.5 137.5t134.5 57.5 q80 0 136.5 -57.5t56.5 -137.5t-55.5 -137t-137.5 -57q-80 0 -136 57t-56 137zM520 1714q0 -39 29 -66.5t65 -27.5q39 0 67 27.5t28 66.5t-28 66.5t-67 27.5q-37 0 -65.5 -27.5t-28.5 -66.5z" />
<glyph unicode="&#xc6;" horiz-adv-x="1480" d="M-2 53q0 61 301 649l363 693q23 47 48 62.5t76 15.5h588q88 0 88 -84q0 -106 -227 -107q-68 0 -167 10.5t-107 10.5v-482q8 0 102 9.5t158 9.5q223 0 223 -103q0 -104 -221 -104q-63 0 -158.5 9t-103.5 9v-481q8 0 112.5 10t173.5 10q236 0 236 -106q0 -84 -88 -84h-518 q-106 0 -107 166q0 33 5 87t5 69h-473l-84 -195q-72 -139 -141 -139q-31 0 -57.5 17t-26.5 48zM385 477h395v785h-4z" />
<glyph unicode="&#xc7;" horiz-adv-x="1159" d="M-8 737q0 311 168 520q180 227 481 228q115 0 252 -53q170 -66 170 -162q0 -86 -74 -86q-27 0 -76 37q-66 51 -102 69q-76 37 -170 37q-223 0 -348 -190q-109 -164 -109 -400q0 -231 107 -397q123 -195 340 -195q119 0 247 65.5t144 65.5q72 0 72 -83q0 -90 -164 -150 q-123 -45 -264 -53l-54 -76q29 6 43 6q51 0 96.5 -32.5t45.5 -82.5q0 -178 -228 -178q-150 0 -149 74q0 55 43 55q18 0 54 -8t52 -8q72 0 72 55q0 35 -76 37t-76 39q0 31 68 121q-264 29 -422 252q-143 206 -143 493z" />
<glyph unicode="&#xc8;" horiz-adv-x="782" d="M41 98v1276q0 98 96 99h518q88 0 88 -84q0 -86 -88 -86h-434v-482h395q88 0 89 -84q0 -86 -89 -86h-395v-481h434q88 0 88 -86q0 -84 -88 -84h-518q-96 0 -96 98zM150 1780q0 33 22.5 59.5t54.5 26.5q41 0 156 -49l148 -64q73 -31 73 -78q0 -33 -22.5 -60.5t-55.5 -27.5 q-43 0 -157 49l-147 67q-72 32 -72 77z" />
<glyph unicode="&#xc9;" horiz-adv-x="782" d="M41 98v1276q0 98 96 99h518q88 0 88 -84q0 -86 -88 -86h-434v-482h395q88 0 89 -84q0 -86 -89 -86h-395v-481h434q88 0 88 -86q0 -84 -88 -84h-518q-96 0 -96 98zM150 1675q0 47 72 78l147 64q115 49 157 49q31 0 54.5 -27t23.5 -59q0 -45 -73 -77l-148 -67 q-115 -49 -156 -49q-33 0 -55 27.5t-22 60.5z" />
<glyph unicode="&#xca;" horiz-adv-x="782" d="M41 98v1276q0 98 96 99h518q88 0 88 -84q0 -86 -88 -86h-434v-482h395q88 0 89 -84q0 -86 -89 -86h-395v-481h434q88 0 88 -86q0 -84 -88 -84h-518q-96 0 -96 98zM66 1665q0 53 47 74l264 112l264 -112q47 -20 47 -74q0 -78 -74 -78q-39 0 -120 35l-117 53l-117 -53 q-84 -35 -121 -35q-73 0 -73 78z" />
<glyph unicode="&#xcb;" horiz-adv-x="782" d="M41 98v1276q0 98 96 99h518q88 0 88 -84q0 -86 -88 -86h-434v-482h395q88 0 89 -84q0 -86 -89 -86h-395v-481h434q88 0 88 -86q0 -84 -88 -84h-518q-96 0 -96 98zM76 1694q0 45 31.5 77.5t78.5 32.5q45 0 78 -32.5t33 -77.5q0 -47 -33 -80t-78 -33q-47 0 -78.5 33 t-31.5 80zM457 1694q0 45 31.5 77.5t78.5 32.5q45 0 78 -32.5t33 -77.5q0 -47 -33 -80t-78 -33q-47 0 -78.5 33t-31.5 80z" />
<glyph unicode="&#xcc;" horiz-adv-x="393" d="M-31 1780q0 33 22.5 59.5t55.5 26.5q41 0 158 -49l146 -64q73 -31 73 -78q0 -33 -22.5 -60.5t-55.5 -27.5q-43 0 -158 49l-146 67q-73 32 -73 77zM106 84v1305q0 96 91 96q90 0 90 -96v-1305q0 -96 -90 -96q-91 0 -91 96z" />
<glyph unicode="&#xcd;" horiz-adv-x="393" d="M-31 1675q0 47 73 78l146 64q117 49 158 49q33 0 55.5 -27t22.5 -59q0 -45 -73 -77l-146 -67q-117 -49 -158 -49q-33 0 -55.5 27.5t-22.5 60.5zM106 84v1305q0 96 91 96q90 0 90 -96v-1305q0 -96 -90 -96q-91 0 -91 96z" />
<glyph unicode="&#xce;" horiz-adv-x="450" d="M-86 1665q0 53 47 74l264 112l264 -112q47 -20 48 -74q0 -78 -74 -78q-39 0 -121 35l-117 53l-116 -53q-82 -35 -121 -35q-74 0 -74 78zM135 84v1305q0 96 90 96t90 -96v-1305q0 -96 -90 -96t-90 96z" />
<glyph unicode="&#xcf;" horiz-adv-x="450" d="M-76 1694q0 45 32 77.5t79 32.5q45 0 77.5 -32.5t32.5 -77.5q0 -47 -31.5 -80t-78.5 -33t-79 33t-32 80zM135 84v1305q0 96 90 96t90 -96v-1305q0 -96 -90 -96t-90 96zM305 1694q0 45 32 77.5t79 32.5q45 0 77.5 -32.5t32.5 -77.5q0 -47 -31.5 -80t-78.5 -33t-79 33 t-32 80z" />
<glyph unicode="&#xd0;" horiz-adv-x="1370" d="M53 743q0 59 60 74q18 4 106 4q0 18 -9 144.5t-9 208.5q0 299 114 299h355q305 0 483 -216q164 -201 164 -512q0 -315 -150 -518q-168 -227 -473 -227h-379q-115 0 -114 303q0 82 9 212t9 149q-88 0 -106 4q-60 14 -60 75zM399 158h258q238 0 361 182q106 156 106 405 q0 248 -112 400q-127 170 -367 170h-246v-494q12 0 67.5 4t90.5 4q176 0 176 -86q0 -88 -174 -88q-35 0 -91 4.5t-69 4.5v-506z" />
<glyph unicode="&#xd1;" horiz-adv-x="1400" d="M135 84v1294q0 106 82 107q61 0 127 -94l737 -1069h4v1067q0 96 91 96q90 0 90 -96v-1295q0 -106 -82 -106q-61 0 -127 94l-738 1071h-4v-1069q0 -96 -90 -96t-90 96zM395 1688q0 61 68 98q57 31 123 31q39 0 112.5 -20.5t112.5 -20.5q27 0 65.5 20.5t61.5 20.5 q27 0 47.5 -26t20.5 -54q0 -61 -68 -101q-55 -31 -123 -30q-39 0 -112.5 20.5t-112.5 20.5q-29 0 -67 -20.5t-60 -20.5q-29 0 -48.5 26.5t-19.5 55.5z" />
<glyph unicode="&#xd2;" horiz-adv-x="1318" d="M20 737q0 305 164 516q180 231 475 232q297 0 476 -232q164 -211 163 -516q0 -305 -163 -518q-178 -231 -476 -231q-297 0 -475 231q-164 213 -164 518zM213 737q0 -242 100 -401q119 -190 346 -191q227 0 347 191q100 160 100 401q0 240 -100 400q-119 190 -347 190 q-225 0 -346 -190q-100 -160 -100 -400zM432 1780q0 33 22.5 59.5t55.5 26.5q41 0 158 -49l146 -64q73 -31 73 -78q0 -33 -22.5 -60.5t-55.5 -27.5q-41 0 -158 49l-146 67q-73 32 -73 77z" />
<glyph unicode="&#xd3;" horiz-adv-x="1370" d="M47 737q0 305 164 516q178 231 475 232q295 0 475 -232q164 -211 164 -516t-164 -518q-178 -231 -475 -231t-475 231q-164 213 -164 518zM240 737q0 -242 100 -401q119 -190 346 -191q225 0 346 191q100 160 101 401q0 240 -101 400q-121 190 -346 190q-227 0 -346 -190 q-100 -160 -100 -400zM459 1675q0 47 72 78l147 64q115 49 158 49q31 0 54 -27t23 -59q0 -45 -72 -77l-149 -67q-115 -49 -155 -49q-33 0 -55.5 27.5t-22.5 60.5z" />
<glyph unicode="&#xd4;" horiz-adv-x="1370" d="M47 737q0 305 164 516q178 231 475 232q295 0 475 -232q164 -211 164 -516t-164 -518q-178 -231 -475 -231t-475 231q-164 213 -164 518zM240 737q0 -242 100 -401q119 -190 346 -191q225 0 346 191q100 160 101 401q0 240 -101 400q-121 190 -346 190q-227 0 -346 -190 q-100 -160 -100 -400zM375 1665q0 53 47 74l264 112l264 -112q47 -20 47 -74q0 -78 -73 -78q-39 0 -121 35l-117 53l-117 -53q-84 -35 -120 -35q-74 0 -74 78z" />
<glyph unicode="&#xd5;" horiz-adv-x="1370" d="M47 737q0 305 164 516q178 231 475 232q295 0 475 -232q164 -211 164 -516t-164 -518q-178 -231 -475 -231t-475 231q-164 213 -164 518zM240 737q0 -242 100 -401q119 -190 346 -191q225 0 346 191q100 160 101 401q0 240 -101 400q-121 190 -346 190q-227 0 -346 -190 q-100 -160 -100 -400zM381 1688q0 61 68 98q57 31 122 31q39 0 113 -20.5t113 -20.5q27 0 65.5 20.5t61.5 20.5q27 0 47 -26t20 -54q0 -61 -67 -101q-57 -31 -123 -30q-41 0 -114 20.5t-112 20.5q-29 0 -67.5 -20.5t-58.5 -20.5q-29 0 -48.5 26.5t-19.5 55.5z" />
<glyph unicode="&#xd6;" horiz-adv-x="1318" d="M20 737q0 305 164 516q180 231 475 232q297 0 476 -232q164 -211 163 -516q0 -305 -163 -518q-178 -231 -476 -231q-297 0 -475 231q-164 213 -164 518zM213 737q0 -242 100 -401q119 -190 346 -191q227 0 347 191q100 160 100 401q0 240 -100 400q-119 190 -347 190 q-225 0 -346 -190q-100 -160 -100 -400zM358 1694q0 45 33 77.5t78 32.5q47 0 79 -32.5t32 -77.5q0 -47 -32 -80t-79 -33t-79 33t-32 80zM739 1694q0 45 33 77.5t78 32.5q47 0 79 -32.5t32 -77.5q0 -47 -32 -80t-79 -33t-79 33t-32 80z" />
<glyph unicode="&#xd7;" horiz-adv-x="1146" d="M102 125q0 55 160 213l197 186l-199 185q-158 158 -158 213q0 31 21.5 54t52.5 23q55 0 215 -163l182 -197l183 197q160 164 215 163q31 0 52 -23.5t21 -53.5q0 -55 -157 -213l-199 -185l199 -186q158 -158 157 -213q0 -31 -21.5 -54.5t-51.5 -23.5q-55 0 -215 164 l-183 199l-182 -199q-160 -164 -215 -164q-31 0 -52.5 23.5t-21.5 54.5z" />
<glyph unicode="&#xd8;" horiz-adv-x="1454" d="M66 27q6 37 71 114l92 107q-141 209 -141 489q0 305 164 516q180 231 475 232q248 0 414 -164l84 104q68 76 100 76q63 0 64 -57q0 -25 -72 -113l-94 -106q143 -205 143 -488q0 -305 -164 -518q-178 -231 -475 -231q-248 0 -414 166q-29 -45 -84 -105q-74 -78 -104 -78 q-41 1 -59 56zM281 737q0 -201 71 -344l680 803q-117 131 -305 131q-225 0 -346 -190q-100 -160 -100 -400zM422 279q115 -133 305 -134q227 0 346 191q100 160 101 401q0 201 -70 346z" />
<glyph unicode="&#xd9;" horiz-adv-x="1312" d="M131 584v805q0 96 90 96q106 0 107 -211q0 -74 -17.5 -276.5t-17.5 -311.5q0 -250 76 -377q98 -164 327 -164t328 164q76 127 76 377q0 109 -17.5 311.5t-17.5 276.5q0 211 106 211q90 0 91 -96v-805q0 -287 -142 -439q-143 -158 -424 -157q-281 0 -424 157 q-141 152 -141 439zM469 1780q0 33 22.5 59.5t55.5 26.5q41 0 158 -49l146 -64q73 -31 73 -78q0 -33 -22.5 -60.5t-55.5 -27.5q-43 0 -158 49l-146 67q-73 32 -73 77z" />
<glyph unicode="&#xda;" horiz-adv-x="1312" d="M131 584v805q0 96 90 96q106 0 107 -211q0 -74 -17.5 -276.5t-17.5 -311.5q0 -250 76 -377q98 -164 327 -164t328 164q76 127 76 377q0 109 -17.5 311.5t-17.5 276.5q0 211 106 211q90 0 91 -96v-805q0 -287 -142 -439q-143 -158 -424 -157q-281 0 -424 157 q-141 152 -141 439zM469 1675q0 47 73 78l146 64q117 49 158 49q33 0 55.5 -27t22.5 -59q0 -45 -73 -77l-146 -67q-115 -49 -158 -49q-33 0 -55.5 27.5t-22.5 60.5z" />
<glyph unicode="&#xdb;" horiz-adv-x="1312" d="M131 584v805q0 96 90 96q106 0 107 -211q0 -74 -17.5 -276.5t-17.5 -311.5q0 -250 76 -377q98 -164 327 -164t328 164q76 127 76 377q0 109 -17.5 311.5t-17.5 276.5q0 211 106 211q90 0 91 -96v-805q0 -287 -142 -439q-143 -158 -424 -157q-281 0 -424 157 q-141 152 -141 439zM385 1665q0 53 47 74l264 112l265 -112q47 -20 47 -74q0 -78 -74 -78q-39 0 -121 35l-117 53l-116 -53q-82 -35 -121 -35q-74 0 -74 78z" />
<glyph unicode="&#xdc;" horiz-adv-x="1288" d="M78 584v805q0 96 90 96q109 0 108 -211q0 -74 -18 -276.5t-18 -311.5q0 -250 75 -377q98 -164 328 -164q231 0 328 164q78 127 78 377q0 109 -18.5 311.5t-18.5 276.5q0 211 106 211q90 0 90 -96v-805q0 -287 -139 -439q-145 -158 -426 -157q-281 0 -424 157 q-141 152 -141 439zM342 1694q0 45 33 77.5t78 32.5q47 0 78.5 -32.5t31.5 -77.5q0 -47 -31.5 -80t-78.5 -33q-45 0 -78 33t-33 80zM723 1694q0 45 32.5 77.5t78.5 32.5q47 0 78.5 -32.5t31.5 -77.5q0 -47 -31.5 -80t-78.5 -33q-45 0 -78 33t-33 80z" />
<glyph unicode="&#xdd;" horiz-adv-x="919" d="M-49 1411q0 33 23.5 53.5t58.5 20.5q80 0 239 -271l189 -344l186 344q160 270 242 271q33 0 57.5 -20.5t24.5 -53.5q0 -47 -191 -356l-229 -365v-606q0 -96 -90 -96t-90 96v606l-232 365q-188 309 -188 356zM233 1675q0 47 73 78l147 64q115 49 157 49q31 0 54.5 -27 t23.5 -59q0 -45 -74 -77l-147 -67q-115 -49 -156 -49q-33 0 -55.5 27.5t-22.5 60.5z" />
<glyph unicode="&#xde;" horiz-adv-x="978" d="M27 84v1305q0 96 90 96q94 0 94 -142q0 -20 -2 -55t-2 -47q360 0 502 -57q244 -96 243 -404q0 -301 -245 -399q-145 -57 -500 -57q0 -14 4 -69.5t4 -90.5q0 -176 -98 -176q-90 0 -90 96zM207 479h266q129 0 214 86t85 215q0 137 -84 220t-223 83h-258v-604z" />
<glyph unicode="&#xdf;" horiz-adv-x="1056" d="M70 76v1089q0 188 103 310t290 122q160 0 280 -106q127 -113 127 -270q0 -238 -157 -349q131 -33 205 -155q70 -113 69 -254q0 -182 -108 -324q-119 -152 -297 -151q-119 0 -119 84q0 66 86 82q121 20 160 51q86 70 86 266q0 166 -88 238q-43 35 -164 67q-88 25 -88 74 q0 57 61 80q90 35 113 59q61 61 61 211q0 100 -61.5 170t-161.5 70q-233 0 -234 -461q0 -123 19.5 -373t19.5 -346q0 -272 -112 -272q-90 0 -90 88z" />
<glyph unicode="&#xe0;" horiz-adv-x="1097" d="M74 551q0 227 123 387q135 174 356 174q166 0 297 -145h4q0 72 10 96q16 49 74 49q37 0 60.5 -25.5t23.5 -62.5v-948q0 -37 -23.5 -62.5t-60.5 -25.5q-61 0 -78 57q-6 23 -6 109h-4q-115 -166 -297 -166q-221 0 -356 174q-123 160 -123 389zM254 551q0 -162 68 -272 q80 -133 231 -134q152 0 233 134q66 111 66 272q0 162 -66 272q-82 133 -233 133q-152 0 -231 -133q-68 -110 -68 -272zM344 1448q0 33 23.5 59.5t54.5 26.5q43 0 158 -49l146 -64q73 -31 73 -78q0 -33 -22.5 -60.5t-55.5 -27.5q-41 0 -156 50l-148 66q-73 32 -73 77z" />
<glyph unicode="&#xe1;" horiz-adv-x="1097" d="M74 551q0 227 123 387q135 174 356 174q166 0 297 -145h4q0 72 10 96q16 49 74 49q37 0 60.5 -25.5t23.5 -62.5v-948q0 -37 -23.5 -62.5t-60.5 -25.5q-61 0 -78 57q-6 23 -6 109h-4q-115 -166 -297 -166q-221 0 -356 174q-123 160 -123 389zM254 551q0 -162 68 -272 q80 -133 231 -134q152 0 233 134q66 111 66 272q0 162 -66 272q-82 133 -233 133q-152 0 -231 -133q-68 -110 -68 -272zM344 1343q0 47 73 78l148 64q115 49 156 49q33 0 55.5 -26.5t22.5 -59.5q0 -45 -73 -77l-146 -66q-115 -49 -158 -50q-33 0 -55.5 27.5t-22.5 60.5z" />
<glyph unicode="&#xe2;" horiz-adv-x="1097" d="M74 551q0 227 123 387q135 174 356 174q166 0 297 -145h4q0 72 10 96q16 49 74 49q37 0 60.5 -25.5t23.5 -62.5v-948q0 -37 -23.5 -62.5t-60.5 -25.5q-61 0 -78 57q-6 23 -6 109h-4q-115 -166 -297 -166q-221 0 -356 174q-123 160 -123 389zM254 551q0 -162 68 -272 q80 -133 231 -134q152 0 233 134q66 111 66 272q0 162 -66 272q-82 133 -233 133q-152 0 -231 -133q-68 -110 -68 -272zM260 1333q0 53 47 74l264 113l265 -113q47 -20 47 -74q0 -78 -74 -78q-37 0 -121 35l-117 53l-116 -53q-82 -35 -121 -35q-74 0 -74 78z" />
<glyph unicode="&#xe3;" horiz-adv-x="1097" d="M74 551q0 227 123 387q135 174 356 174q166 0 297 -145h4q0 72 10 96q16 49 74 49q37 0 60.5 -25.5t23.5 -62.5v-948q0 -37 -23.5 -62.5t-60.5 -25.5q-61 0 -78 57q-6 23 -6 109h-4q-115 -166 -297 -166q-221 0 -356 174q-123 160 -123 389zM254 551q0 -162 68 -272 q80 -133 231 -134q152 0 233 134q66 111 66 272q0 162 -66 272q-82 133 -233 133q-152 0 -231 -133q-68 -110 -68 -272zM266 1356q0 61 68 98q57 31 123 31q41 0 114.5 -20.5t110.5 -20.5q29 0 67.5 20.5t59.5 20.5q29 0 48.5 -25.5t19.5 -54.5q0 -61 -68 -100 q-55 -31 -123 -31q-39 0 -112.5 20.5t-112.5 20.5q-27 0 -66 -20.5t-61 -20.5q-27 0 -47.5 26.5t-20.5 55.5z" />
<glyph unicode="&#xe4;" horiz-adv-x="1097" d="M74 551q0 227 123 387q135 174 356 174q166 0 297 -145h4q0 72 10 96q16 49 74 49q37 0 60.5 -25.5t23.5 -62.5v-948q0 -37 -23.5 -62.5t-60.5 -25.5q-61 0 -78 57q-6 23 -6 109h-4q-115 -166 -297 -166q-221 0 -356 174q-123 160 -123 389zM254 551q0 -162 68 -272 q80 -133 231 -134q152 0 233 134q66 111 66 272q0 162 -66 272q-82 133 -233 133q-152 0 -231 -133q-68 -110 -68 -272zM270 1362q0 45 33 78t78 33q47 0 79 -33t32 -78q0 -47 -32 -80t-79 -33q-45 0 -78 33t-33 80zM651 1362q0 45 33 78t78 33q47 0 78.5 -33t31.5 -78 q0 -47 -31.5 -80t-78.5 -33q-45 0 -78 33t-33 80z" />
<glyph unicode="&#xe5;" horiz-adv-x="1097" d="M74 551q0 227 123 387q135 174 356 174q166 0 297 -145h4q0 72 10 96q16 49 74 49q37 0 60.5 -25.5t23.5 -62.5v-948q0 -37 -23.5 -62.5t-60.5 -25.5q-61 0 -78 57q-6 23 -6 109h-4q-115 -166 -297 -166q-221 0 -356 174q-123 160 -123 389zM254 551q0 -162 68 -272 q80 -133 231 -134q152 0 233 134q66 111 66 272q0 162 -66 272q-82 133 -233 133q-152 0 -231 -133q-68 -110 -68 -272zM379 1403q0 80 57.5 137t134.5 57q80 0 136.5 -57t56.5 -137t-56.5 -137.5t-136.5 -57.5t-136 57.5t-56 137.5zM477 1403q0 -39 29 -66.5t65 -27.5 q39 0 67 27.5t28 66.5t-28 66.5t-67 27.5q-37 0 -65.5 -27.5t-28.5 -66.5z" />
<glyph unicode="&#xe6;" horiz-adv-x="1703" d="M4 551q0 227 123 387q135 174 356 174q166 0 295 -145h4q0 72 9 96q18 49 75 49q84 0 84 -133h4q41 55 128 94t159 39q203 0 336 -170q123 -156 123 -364q0 -98 -101 -99h-665q4 -141 96 -235t234 -94q90 0 168 36q41 20 108 70q49 37 72 37q66 0 65 -80q0 -88 -161 -162 q-139 -63 -240 -63q-219 0 -322 133h-4q0 -133 -84 -133q-61 0 -78 57q-6 23 -6 109h-4q-113 -166 -295 -166q-221 0 -356 176q-123 160 -123 387zM184 551q0 -162 68 -272q80 -133 231 -134q152 0 232 134q68 111 67 272q0 162 -67 272q-80 133 -232 133t-231 -133 q-68 -110 -68 -272zM946 616h574q0 137 -74 234q-82 106 -215 106q-137 0 -215 -104q-70 -95 -70 -236z" />
<glyph unicode="&#xe7;" horiz-adv-x="888" d="M51 551q0 238 125 393q135 168 367 168q96 0 176 -25q117 -37 117 -112q0 -31 -21.5 -54.5t-52.5 -23.5q-27 0 -93.5 29.5t-125.5 29.5q-152 0 -238 -131q-74 -115 -74 -274q0 -160 74 -275q86 -131 238 -131q66 0 132 31t85 31q70 0 69 -76q0 -72 -100 -111 q-72 -29 -168 -32l-51 -74q29 6 43 6q51 0 96 -32.5t45 -82.5q0 -178 -227 -178q-150 0 -150 74q0 55 43 55q18 0 53.5 -8t53.5 -8q72 0 72 55q0 35 -76 37t-76 39q0 29 70 123q-193 31 -303 192q-103 152 -103 365z" />
<glyph unicode="&#xe8;" horiz-adv-x="1042" d="M-2 551q0 229 129 389q137 172 360 172q209 0 344 -166q125 -156 125 -368q0 -98 -100 -99h-678q0 -147 88 -240.5t234 -93.5q98 0 182 39q47 20 115 70q51 39 71 39q66 0 66 -80q0 -90 -178 -164q-152 -61 -258 -61q-240 0 -375 166q-125 153 -125 397zM178 616h598 q0 137 -74 234q-80 106 -215 106q-147 0 -229 -98q-74 -90 -80 -242zM250 1448q0 33 22.5 59.5t55.5 26.5q41 0 157 -49l147 -64q73 -31 73 -78q0 -33 -23 -60.5t-55 -27.5q-41 0 -156 50l-148 66q-73 32 -73 77z" />
<glyph unicode="&#xe9;" horiz-adv-x="1042" d="M-2 551q0 229 129 389q137 172 360 172q209 0 344 -166q125 -156 125 -368q0 -98 -100 -99h-678q0 -147 88 -240.5t234 -93.5q98 0 182 39q47 20 115 70q51 39 71 39q66 0 66 -80q0 -90 -178 -164q-152 -61 -258 -61q-240 0 -375 166q-125 153 -125 397zM178 616h598 q0 137 -74 234q-80 106 -215 106q-147 0 -229 -98q-74 -90 -80 -242zM250 1343q0 47 73 78l148 64q115 49 156 49q33 0 55.5 -26.5t22.5 -59.5q0 -45 -73 -77l-147 -66q-115 -49 -157 -50q-33 0 -55.5 27.5t-22.5 60.5z" />
<glyph unicode="&#xea;" horiz-adv-x="1042" d="M-2 551q0 229 129 389q137 172 360 172q209 0 344 -166q125 -156 125 -368q0 -98 -100 -99h-678q0 -147 88 -240.5t234 -93.5q98 0 182 39q47 20 115 70q51 39 71 39q66 0 66 -80q0 -90 -178 -164q-152 -61 -258 -61q-240 0 -375 166q-125 153 -125 397zM166 1333 q0 53 47 74l264 113l264 -113q47 -20 47 -74q0 -78 -73 -78q-39 0 -121 35l-117 53l-117 -53q-82 -35 -120 -35q-74 0 -74 78zM178 616h598q0 137 -74 234q-80 106 -215 106q-147 0 -229 -98q-74 -90 -80 -242z" />
<glyph unicode="&#xeb;" horiz-adv-x="1042" d="M-2 551q0 229 129 389q137 172 360 172q209 0 344 -166q125 -156 125 -368q0 -98 -100 -99h-678q0 -147 88 -240.5t234 -93.5q98 0 182 39q47 20 115 70q51 39 71 39q66 0 66 -80q0 -90 -178 -164q-152 -61 -258 -61q-240 0 -375 166q-125 153 -125 397zM176 1362 q0 45 33 78t78 33q47 0 78.5 -33t31.5 -78q0 -47 -31.5 -80t-78.5 -33t-79 33t-32 80zM178 616h598q0 137 -74 234q-80 106 -215 106q-147 0 -229 -98q-74 -90 -80 -242zM557 1362q0 45 33 78t78 33q47 0 78.5 -33t31.5 -78q0 -47 -31.5 -80t-78.5 -33t-79 33t-32 80z" />
<glyph unicode="&#xec;" horiz-adv-x="446" d="M-4 1448q0 33 22.5 59.5t55.5 26.5q41 0 155 -49l149 -64q73 -31 73 -80q0 -33 -24 -59.5t-54 -26.5q-43 0 -158 50l-146 66q-73 32 -73 77zM133 84v932q0 96 90 96t90 -96v-932q0 -96 -90 -96t-90 96z" />
<glyph unicode="&#xed;" horiz-adv-x="446" d="M-4 1341q0 49 73 80l146 64q115 49 158 49q31 0 54.5 -26.5t23.5 -59.5q0 -45 -73 -77l-149 -66q-115 -49 -155 -50q-33 0 -55.5 26.5t-22.5 59.5zM133 84v932q0 96 90 96t90 -96v-932q0 -96 -90 -96t-90 96z" />
<glyph unicode="&#xee;" horiz-adv-x="446" d="M-88 1333q0 53 47 74l264 113l264 -113q47 -20 48 -74q0 -78 -74 -78q-43 0 -121 33l-117 53l-117 -53q-78 -33 -120 -33q-74 0 -74 78zM133 84v932q0 96 90 96t90 -96v-932q0 -96 -90 -96t-90 96z" />
<glyph unicode="&#xef;" horiz-adv-x="446" d="M-78 1362q0 45 32 78t79 33q45 0 77.5 -33t32.5 -78q0 -47 -32.5 -80t-77.5 -33q-47 0 -79 33t-32 80zM133 84v932q0 96 90 96t90 -96v-932q0 -96 -90 -96t-90 96zM303 1362q0 45 32 78t79 33q45 0 77.5 -33t32.5 -78q0 -47 -32.5 -80t-77.5 -33q-47 0 -79 33t-32 80z " />
<glyph unicode="&#xf0;" horiz-adv-x="1017" d="M29 543q0 221 121 381q133 176 346 176q166 0 258 -123l4 4q-66 182 -248 332l-117 -62q-76 -37 -121 -43q-49 20 -49 56q0 31 84 73l109 52l-115 59q-78 41 -78 84q0 66 76 65q106 0 276 -127q225 115 248 115q16 0 32.5 -17.5t16.5 -33.5q0 -41 -81 -84l-121 -53 q317 -287 317 -779q0 -268 -108 -434q-127 -197 -383 -196q-213 0 -344 174q-123 160 -123 381zM209 543q0 -156 72 -267q82 -131 227 -131q147 0 229 131q70 111 70 267t-70 266q-82 131 -229 131q-145 0 -227 -131q-72 -110 -72 -266z" />
<glyph unicode="&#xf1;" horiz-adv-x="978" d="M57 84v932q0 96 90 96q59 0 78 -45q12 -27 13 -94l4 -4q113 143 301 143q178 0 278.5 -117.5t100.5 -300.5v-610q0 -96 -91 -96q-100 0 -100 198q0 53 9.5 186.5t9.5 200.5q0 178 -50 269q-61 115 -211 114q-150 0 -210 -114q-49 -90 -50 -269q0 -68 9.5 -200.5 t9.5 -186.5q0 -199 -101 -198q-90 0 -90 96zM184 1356q0 61 68 98q57 31 123 31q39 0 112.5 -20.5t112.5 -20.5q29 0 67 20.5t60 20.5q27 0 47.5 -25.5t20.5 -54.5q0 -61 -68 -100q-55 -31 -123 -31q-39 0 -112.5 20.5t-112.5 20.5q-27 0 -66 -20.5t-61 -20.5 q-27 0 -47.5 26.5t-20.5 55.5z" />
<glyph unicode="&#xf2;" horiz-adv-x="1036" d="M-2 551q0 227 123 387q135 174 356 174t357 -174q123 -160 122 -387q0 -229 -122 -389q-133 -174 -357 -174q-221 0 -356 174q-123 160 -123 389zM178 551q0 -162 68 -272q80 -133 231 -134q152 0 232 134q68 111 67 272q0 162 -67 272q-80 133 -232 133t-231 -133 q-68 -110 -68 -272zM250 1448q0 33 22.5 59.5t55.5 26.5q41 0 157 -49l147 -64q73 -31 73 -78q0 -33 -23 -60.5t-55 -27.5q-41 0 -158 50l-146 66q-73 32 -73 77z" />
<glyph unicode="&#xf3;" horiz-adv-x="1036" d="M-2 551q0 227 123 387q135 174 356 174t357 -174q123 -160 122 -387q0 -229 -122 -389q-133 -174 -357 -174q-221 0 -356 174q-123 160 -123 389zM178 551q0 -162 68 -272q80 -133 231 -134q152 0 232 134q68 111 67 272q0 162 -67 272q-80 133 -232 133t-231 -133 q-68 -110 -68 -272zM250 1343q0 47 73 78l146 64q117 49 158 49q33 0 55.5 -26.5t22.5 -59.5q0 -45 -73 -77l-147 -66q-115 -49 -157 -50q-33 0 -55.5 27.5t-22.5 60.5z" />
<glyph unicode="&#xf4;" horiz-adv-x="1036" d="M-2 551q0 227 123 387q135 174 356 174t357 -174q123 -160 122 -387q0 -229 -122 -389q-133 -174 -357 -174q-221 0 -356 174q-123 160 -123 389zM166 1333q0 53 47 74l264 113l264 -113q47 -20 47 -74q0 -78 -73 -78q-39 0 -121 35l-117 53l-117 -53q-82 -35 -120 -35 q-74 0 -74 78zM178 551q0 -162 68 -272q80 -133 231 -134q152 0 232 134q68 111 67 272q0 162 -67 272q-80 133 -232 133t-231 -133q-68 -110 -68 -272z" />
<glyph unicode="&#xf5;" horiz-adv-x="1036" d="M-2 551q0 227 123 387q135 174 356 174t357 -174q123 -160 122 -387q0 -229 -122 -389q-133 -174 -357 -174q-221 0 -356 174q-123 160 -123 389zM172 1356q0 61 68 98q57 31 122 31q39 0 113 -20.5t113 -20.5q29 0 66.5 20.5t60.5 20.5q27 0 47 -25.5t20 -54.5 q0 -61 -67 -100q-55 -31 -123 -31q-39 0 -112.5 20.5t-112.5 20.5q-27 0 -66 -20.5t-61 -20.5q-27 0 -47.5 26.5t-20.5 55.5zM178 551q0 -162 68 -272q80 -133 231 -134q152 0 232 134q68 111 67 272q0 162 -67 272q-80 133 -232 133t-231 -133q-68 -110 -68 -272z" />
<glyph unicode="&#xf6;" horiz-adv-x="1036" d="M-2 551q0 227 123 387q135 174 356 174t357 -174q123 -160 122 -387q0 -229 -122 -389q-133 -174 -357 -174q-221 0 -356 174q-123 160 -123 389zM176 1362q0 45 33 78t78 33t77.5 -33t32.5 -78q0 -47 -31.5 -80t-78.5 -33t-79 33t-32 80zM178 551q0 -162 68 -272 q80 -133 231 -134q152 0 232 134q68 111 67 272q0 162 -67 272q-80 133 -232 133t-231 -133q-68 -110 -68 -272zM557 1362q0 45 33 78t78 33t77.5 -33t32.5 -78q0 -47 -31.5 -80t-78.5 -33t-79 33t-32 80z" />
<glyph unicode="&#xf7;" horiz-adv-x="1132" d="M49 524q0 84 88 84h860q88 0 88 -84q0 -86 -88 -86h-860q-88 0 -88 86zM420 94q0 61 42 105.5t105 44.5q61 0 104.5 -44t43.5 -106q0 -61 -43 -104t-105 -43q-61 0 -104 43t-43 104zM420 952q0 61 43 104.5t104 43.5t104.5 -43t43.5 -105q0 -61 -43 -105t-105 -44 q-63 0 -105 44t-42 105z" />
<glyph unicode="&#xf8;" horiz-adv-x="1179" d="M86 8q0 29 129 185q-104 141 -104 358q0 227 122 387q135 174 357 174q172 0 293 -104l65 84q51 59 82 59q63 0 64 -59q0 -31 -52 -97l-75 -86q102 -156 102 -358q0 -229 -123 -389q-135 -174 -356 -174q-172 0 -291 106l-68 -86q-51 -57 -84 -57q-25 0 -43 16t-18 41z M291 551q0 -121 41 -215l446 543q-74 78 -188 77q-152 0 -232 -133q-67 -110 -67 -272zM401 221q72 -76 189 -76q152 0 231 134q68 111 68 272q0 123 -41 215z" />
<glyph unicode="&#xf9;" horiz-adv-x="1046" d="M137 426v590q0 96 90 96q100 0 101 -192q0 -55 -10.5 -193.5t-10.5 -210.5q0 -371 262 -371t262 371q0 72 -11 210t-11 194q0 193 102 192q90 0 90 -96v-590q0 -205 -114.5 -321.5t-317.5 -116.5t-317.5 116.5t-114.5 321.5zM342 1448q0 33 22.5 59.5t55.5 26.5 q41 0 155 -49l149 -64q73 -31 73 -78q0 -33 -22.5 -60.5t-55.5 -27.5q-43 0 -158 50l-146 66q-73 32 -73 77z" />
<glyph unicode="&#xfa;" horiz-adv-x="1046" d="M137 426v590q0 96 90 96q100 0 101 -192q0 -55 -10.5 -193.5t-10.5 -210.5q0 -371 262 -371t262 371q0 72 -11 210t-11 194q0 193 102 192q90 0 90 -96v-590q0 -205 -114.5 -321.5t-317.5 -116.5t-317.5 116.5t-114.5 321.5zM342 1343q0 47 73 78l146 64q115 49 158 49 q31 0 54.5 -26.5t23.5 -59.5q0 -45 -73 -77l-149 -66q-115 -49 -155 -50q-33 0 -55.5 27.5t-22.5 60.5z" />
<glyph unicode="&#xfb;" horiz-adv-x="1046" d="M137 426v590q0 96 90 96q100 0 101 -192q0 -55 -10.5 -193.5t-10.5 -210.5q0 -371 262 -371t262 371q0 72 -11 210t-11 194q0 193 102 192q90 0 90 -96v-590q0 -205 -114.5 -321.5t-317.5 -116.5t-317.5 116.5t-114.5 321.5zM258 1333q0 53 47 74l264 113l265 -113 q47 -20 47 -74q0 -78 -74 -78q-39 0 -121 35l-117 53l-116 -53q-84 -35 -121 -35q-74 0 -74 78z" />
<glyph unicode="&#xfc;" horiz-adv-x="1046" d="M137 426v590q0 96 90 96q100 0 101 -192q0 -55 -10.5 -193.5t-10.5 -210.5q0 -371 262 -371t262 371q0 72 -11 210t-11 194q0 193 102 192q90 0 90 -96v-590q0 -205 -114.5 -321.5t-317.5 -116.5t-317.5 116.5t-114.5 321.5zM268 1362q0 45 32 78t79 33q45 0 77.5 -33 t32.5 -78q0 -47 -32.5 -80t-77.5 -33q-47 0 -79 33t-32 80zM649 1362q0 45 32 78t79 33q45 0 77.5 -33t32.5 -78q0 -47 -32.5 -80t-77.5 -33q-47 0 -79 33t-32 80z" />
<glyph unicode="&#xfd;" horiz-adv-x="796" d="M-23 1036q0 33 26 54.5t56 21.5q68 0 91 -68l249 -755h4l246 755q23 68 86 68q33 0 57.5 -21.5t24.5 -54.5q0 -94 -213 -688l-266 -727q-23 -68 -88 -67q-31 0 -56.5 21.5t-25.5 53.5q0 45 63 213l78 197l-188 506q-144 389 -144 491zM170 1343q0 47 74 78l147 64 q115 49 156 49q33 0 55.5 -26.5t22.5 -59.5q0 -45 -73 -77l-146 -66q-115 -49 -158 -50q-33 0 -55.5 27.5t-22.5 60.5z" />
<glyph unicode="&#xfe;" horiz-adv-x="1056" d="M59 -350v1849q0 98 91 98q106 0 106 -292q0 -82 -8 -205t-8 -137h4q76 150 291 149q215 0 346 -178q119 -160 118 -383q0 -223 -118 -385q-131 -178 -346 -178q-190 0 -291 149h-4q0 -14 8 -125.5t8 -185.5q0 -272 -106 -272q-91 0 -91 96zM221 551q0 -162 66 -272 q80 -133 233 -134q152 0 232 134q68 111 67 272q0 162 -67 272q-80 133 -232 133q-154 0 -233 -133q-66 -110 -66 -272z" />
<glyph unicode="&#xff;" horiz-adv-x="860" d="M10 1036q0 33 24.5 54.5t57.5 21.5q68 0 90 -68l250 -755h4l246 755q23 68 86 68q33 0 57.5 -21.5t24.5 -54.5q0 -94 -213 -688l-266 -727q-25 -68 -88 -67q-33 0 -57.5 21.5t-24.5 53.5q0 45 63 213l78 197l-190 506q-142 389 -142 491zM129 1362q0 45 33 78t78 33 t77.5 -33t32.5 -78q0 -47 -31.5 -80t-78.5 -33t-79 33t-32 80zM510 1362q0 45 32.5 78t78.5 33q45 0 77.5 -33t32.5 -78q0 -47 -31.5 -80t-78.5 -33t-79 33t-32 80z" />
<glyph unicode="&#x152;" horiz-adv-x="1818" d="M25 737q0 303 165 516q178 231 474 232q250 0 432 -207q0 109 4 127q18 68 92 68h494q88 0 88 -84q0 -102 -232 -103q-61 0 -156.5 8.5t-109.5 8.5v-482q14 0 104 7.5t150 7.5q229 0 229 -99q0 -100 -225 -100q-59 0 -151.5 7t-106.5 7v-481q14 0 114.5 8t163.5 8 q240 0 240 -102q0 -84 -88 -84h-514q-98 0 -98 133q0 14 2 43v39h-4q-72 -104 -188 -165.5t-240 -61.5q-295 0 -476 233q-163 213 -163 516zM217 737q0 -242 100 -401q119 -190 347 -191q227 0 346 191q100 160 100 401q0 240 -100 400q-119 190 -346 190q-225 0 -347 -190 q-100 -160 -100 -400z" />
<glyph unicode="&#x153;" horiz-adv-x="1736" d="M2 551q0 225 123 385q133 176 350 176q250 0 395 -215q59 102 163 158.5t222 56.5q213 0 351 -164q129 -154 129 -370q0 -98 -101 -99h-678q0 -154 92.5 -241.5t245.5 -87.5q92 0 170 36q43 20 111 70q51 37 72 37q66 0 65 -80q0 -90 -174 -164q-145 -61 -252 -61 q-293 0 -416 215q-152 -215 -395 -215q-219 0 -352 176q-121 162 -121 387zM182 551q0 -162 68 -272q80 -133 229 -134q152 0 232 134q66 111 65 272q0 162 -65 272q-80 133 -232 133q-150 0 -229 -133q-68 -110 -68 -272zM956 616h598q0 141 -79.5 240.5t-219.5 99.5 q-137 0 -218 -99.5t-81 -240.5z" />
<glyph unicode="&#x178;" horiz-adv-x="980" d="M-49 1411q0 33 23.5 53.5t58.5 20.5q80 0 239 -271l189 -344l186 344q160 270 242 271q33 0 57.5 -20.5t24.5 -53.5q0 -47 -191 -356l-229 -365v-606q0 -96 -90 -96t-90 96v606l-232 365q-188 309 -188 356zM160 1694q0 45 31.5 77.5t78.5 32.5q45 0 78 -32.5t33 -77.5 q0 -47 -33 -80t-78 -33q-47 0 -78.5 33t-31.5 80zM541 1694q0 45 31.5 77.5t78.5 32.5q45 0 78 -32.5t33 -77.5q0 -47 -33 -80t-78 -33q-47 0 -78.5 33t-31.5 80z" />
<glyph unicode="&#x2c6;" horiz-adv-x="608" d="M-6 1333q0 53 47 74l264 113l264 -113q47 -20 47 -74q0 -78 -73 -78q-43 0 -123 33l-115 53l-117 -53q-78 -33 -120 -33q-74 0 -74 78z" />
<glyph unicode="&#x2dc;" horiz-adv-x="589" d="M-10 1356q0 61 67 98q57 31 123 31q39 0 113 -20.5t113 -20.5q27 0 65.5 20.5t60.5 20.5q27 0 47.5 -25.5t20.5 -54.5q0 -61 -68 -100q-55 -31 -122 -31q-39 0 -113 20.5t-113 20.5q-29 0 -66.5 -20.5t-60.5 -20.5q-29 0 -48 26.5t-19 55.5z" />
<glyph unicode="&#x2013;" horiz-adv-x="1132" d="M55 555q0 33 22.5 55.5t55.5 22.5h868q31 0 54.5 -22.5t23.5 -55.5t-23.5 -56.5t-54.5 -23.5h-868q-33 0 -55.5 23.5t-22.5 56.5z" />
<glyph unicode="&#x2014;" horiz-adv-x="2234" d="M16 555q0 33 22.5 55.5t55.5 22.5h2048q31 0 54.5 -22.5t23.5 -55.5t-23.5 -56.5t-54.5 -23.5h-2048q-33 0 -55.5 23.5t-22.5 56.5z" />
<glyph unicode="&#x2018;" horiz-adv-x="329" d="M8 1104q0 47 58 160l77 146q39 75 99 75q33 0 57.5 -22.5t24.5 -55.5q0 -47 -60 -160l-78 -146q-39 -75 -96 -75q-33 0 -57.5 22.5t-24.5 55.5z" />
<glyph unicode="&#x2019;" horiz-adv-x="329" d="M8 1104q0 47 58 160l77 146q39 75 99 75q33 0 57.5 -22.5t24.5 -55.5q0 -47 -60 -160l-78 -146q-39 -75 -96 -75q-33 0 -57.5 22.5t-24.5 55.5z" />
<glyph unicode="&#x201a;" horiz-adv-x="503" d="M94 -182q0 45 60 159l77 147q39 75 97 75q33 0 57.5 -22.5t24.5 -55.5q0 -47 -58 -160l-80 -146q-39 -75 -96 -75q-33 0 -57.5 22.5t-24.5 55.5z" />
<glyph unicode="&#x201c;" horiz-adv-x="604" d="M-2 1104q0 47 59 160l78 146q39 75 96 75q33 0 57.5 -22.5t24.5 -55.5q0 -47 -57 -160l-78 -146q-39 -75 -98 -75q-33 0 -57.5 22.5t-24.5 55.5zM289 1104q0 47 59 160l78 146q39 75 96 75q33 0 57.5 -22.5t24.5 -55.5q0 -47 -57 -160l-78 -146q-39 -75 -98 -75 q-33 0 -57.5 22.5t-24.5 55.5z" />
<glyph unicode="&#x201d;" horiz-adv-x="604" d="M-2 1104q0 47 59 160l78 146q39 75 96 75q33 0 57.5 -22.5t24.5 -55.5q0 -47 -57 -160l-78 -146q-39 -75 -98 -75q-33 0 -57.5 22.5t-24.5 55.5zM289 1104q0 47 59 160l78 146q39 75 96 75q33 0 57.5 -22.5t24.5 -55.5q0 -47 -57 -160l-78 -146q-39 -75 -98 -75 q-33 0 -57.5 22.5t-24.5 55.5z" />
<glyph unicode="&#x201e;" horiz-adv-x="763" d="M78 -182q0 45 59 159l78 147q39 75 96 75q33 0 57.5 -22.5t24.5 -55.5q0 -47 -57 -160l-78 -146q-39 -75 -98 -75q-33 0 -57.5 22.5t-24.5 55.5zM369 -182q0 45 59 159l78 147q39 75 96 75q33 0 57.5 -22.5t24.5 -55.5q0 -47 -57 -160l-78 -146q-39 -75 -98 -75 q-33 0 -57.5 22.5t-24.5 55.5z" />
<glyph unicode="&#x2026;" horiz-adv-x="1929" d="M178 92q0 43 31 75t74 32t73.5 -32t30.5 -75t-30.5 -73.5t-73.5 -30.5t-74 30.5t-31 73.5zM860 92q0 43 31 75t74 32t73.5 -32t30.5 -75t-30.5 -73.5t-73.5 -30.5t-74 30.5t-31 73.5zM1542 92q0 43 31 75t74 32t73.5 -32t30.5 -75t-30.5 -73.5t-73.5 -30.5t-74 30.5 t-31 73.5z" />
<glyph unicode="&#x2039;" horiz-adv-x="438" d="M41 555l203 367q31 55 69 55q82 0 82 -74q0 -37 -84 -180l-108 -168l106 -170q86 -143 86 -180q0 -72 -82 -72q-39 0 -69 53z" />
<glyph unicode="&#x203a;" horiz-adv-x="397" d="M23 205q0 37 86 180l106 170l-106 168q-86 143 -86 180q0 74 81 74q39 0 70 -55l203 -367l-203 -369q-31 -53 -70 -53q-81 0 -81 72z" />
<glyph unicode="&#x2122;" horiz-adv-x="1947" d="M78 1405q0 68 65 68h557q66 0 66 -68q0 -78 -125 -78q-29 0 -76 4t-59 4v-630q0 -88 -84 -89q-84 0 -84 89v630q-10 0 -57.5 -4t-75.5 -4q-127 0 -127 78zM930 694v654q0 137 129 137q109 0 137 -80l205 -541l201 541q31 80 137 80q129 0 129 -137v-654 q0 -33 -22.5 -55.5t-55.5 -22.5q-31 0 -54.5 23t-23.5 55v596h-4l-221 -598q-27 -76 -88 -76q-59 0 -88 76l-221 598h-5v-596q0 -33 -22.5 -55.5t-54.5 -22.5q-31 0 -54.5 22.5t-23.5 55.5z" />
<glyph unicode="&#xe000;" horiz-adv-x="1110" d="M0 1110h1110v-1110h-1110v1110z" />
<glyph unicode="&#xfb01;" horiz-adv-x="1038" d="M705 1374q0 45 31.5 78t78.5 33q45 0 78 -33t33 -78q0 -47 -33 -79.5t-78 -32.5q-47 0 -78.5 32.5t-31.5 79.5zM725 84v932q0 96 90 96t90 -96v-932q0 -96 -90 -96t-90 96zM23 1022q0 59 57 74q18 4 106 4q0 35 -2 98v88q0 162 47 227q66 84 250 84q39 0 71 -21.5 t32 -57.5q0 -61 -54.5 -68.5t-107.5 -11.5q-55 -10 -55 -70v-268q10 0 39 2h43q121 0 120 -80q0 -80 -120 -80h-43q-29 2 -39 2v-860q0 -96 -91 -96q-90 0 -90 96v860q-88 0 -106 4q-57 15 -57 74z" />
<glyph unicode="&#xfb02;" horiz-adv-x="1042" d="M727 84v1415q0 98 90 98t90 -98v-1415q0 -96 -90 -96t-90 96zM23 1022q0 59 57 74q18 4 106 4q0 35 -2 98v88q0 162 47 227q66 84 250 84q39 0 71 -21.5t32 -57.5q0 -61 -54.5 -68.5t-107.5 -11.5q-55 -10 -55 -70v-268q10 0 39 2h43q121 0 120 -80q0 -80 -120 -80h-43 q-29 2 -39 2v-860q0 -96 -91 -96q-90 0 -90 96v860q-88 0 -106 4q-57 15 -57 74z" />
<glyph unicode="&#xfb03;" horiz-adv-x="1630" d="M1297 1374q0 45 31.5 78t78.5 33q45 0 78 -33t33 -78q0 -47 -33 -79.5t-78 -32.5q-47 0 -78.5 32.5t-31.5 79.5zM1317 84v932q0 96 90 96t90 -96v-932q0 -96 -90 -96t-90 96zM615 1022q0 59 57 74q18 4 106 4q0 35 -2 98v88q0 162 47 227q66 84 250 84q39 0 71 -21.5 t32 -57.5q0 -61 -54.5 -68.5t-107.5 -11.5q-55 -10 -55 -70v-268q10 0 39 2h43q121 0 120 -80q0 -80 -120 -80h-43q-29 2 -39 2v-860q0 -96 -91 -96q-90 0 -90 96v860q-88 0 -106 4q-57 15 -57 74zM23 1022q0 59 57 74q18 4 106 4q0 35 -2 98v88q0 162 47 227q66 84 250 84 q39 0 71 -21.5t32 -57.5q0 -61 -54.5 -68.5t-107.5 -11.5q-55 -10 -55 -70v-268q10 0 39 2h43q121 0 120 -80q0 -80 -120 -80h-43q-29 2 -39 2v-860q0 -96 -91 -96q-90 0 -90 96v860q-88 0 -106 4q-57 15 -57 74z" />
<glyph unicode="&#xfb04;" horiz-adv-x="1634" d="M1319 84v1415q0 98 90 98t90 -98v-1415q0 -96 -90 -96t-90 96zM615 1022q0 59 57 74q18 4 106 4q0 35 -2 98v88q0 162 47 227q66 84 250 84q39 0 71 -21.5t32 -57.5q0 -61 -54.5 -68.5t-107.5 -11.5q-55 -10 -55 -70v-268q10 0 39 2h43q121 0 120 -80q0 -80 -120 -80h-43 q-29 2 -39 2v-860q0 -96 -91 -96q-90 0 -90 96v860q-88 0 -106 4q-57 15 -57 74zM23 1022q0 59 57 74q18 4 106 4q0 35 -2 98v88q0 162 47 227q66 84 250 84q39 0 71 -21.5t32 -57.5q0 -61 -54.5 -68.5t-107.5 -11.5q-55 -10 -55 -70v-268q10 0 39 2h43q121 0 120 -80 q0 -80 -120 -80h-43q-29 2 -39 2v-860q0 -96 -91 -96q-90 0 -90 96v860q-88 0 -106 4q-57 15 -57 74z" />
</font>
</defs>
</svg>
